<svg width="59" height="59" viewBox="0 0 59 59" fill="none" xmlns="http://www.w3.org/2000/svg">
<circle cx="29.5" cy="29.5" r="29.5" fill="url(#paint0_linear_230_59)"/>
<path d="M22.8971 43.408C20.9478 43.408 19.2024 42.932 17.6611 41.98C16.1198 41.0053 14.9071 39.6 14.0231 37.764C13.1391 35.928 12.6971 33.7067 12.6971 31.1C12.6971 28.4933 13.1391 26.272 14.0231 24.436C14.9071 22.6 16.1198 21.206 17.6611 20.254C19.2024 19.2793 20.9478 18.792 22.8971 18.792C24.8691 18.792 26.6144 19.2793 28.1331 20.254C29.6744 21.206 30.8871 22.6 31.7711 24.436C32.6551 26.272 33.0971 28.4933 33.0971 31.1C33.0971 33.7067 32.6551 35.928 31.7711 37.764C30.8871 39.6 29.6744 41.0053 28.1331 41.98C26.6144 42.932 24.8691 43.408 22.8971 43.408ZM22.8971 38.75C23.8264 38.75 24.6311 38.4893 25.3111 37.968C26.0138 37.4467 26.5578 36.6193 26.9431 35.486C27.3511 34.3527 27.5551 32.8907 27.5551 31.1C27.5551 29.3093 27.3511 27.8473 26.9431 26.714C26.5578 25.5807 26.0138 24.7533 25.3111 24.232C24.6311 23.7107 23.8264 23.45 22.8971 23.45C21.9904 23.45 21.1858 23.7107 20.4831 24.232C19.8031 24.7533 19.2591 25.5807 18.8511 26.714C18.4658 27.8473 18.2731 29.3093 18.2731 31.1C18.2731 32.8907 18.4658 34.3527 18.8511 35.486C19.2591 36.6193 19.8031 37.4467 20.4831 37.968C21.1858 38.4893 21.9904 38.75 22.8971 38.75ZM39.3125 43V21.24L41.6925 23.62H34.5525V19.2H44.8205V43H39.3125Z" fill="#F6F6F6"/>
<defs>
<linearGradient id="paint0_linear_230_59" x1="29.5" y1="10.7273" x2="29.5" y2="59" gradientUnits="userSpaceOnUse">
<stop stop-color="#FF734F"/>
<stop offset="1" stop-color="#E83C11"/>
</linearGradient>
</defs>
</svg>
