<svg width="159" height="159" viewBox="0 0 159 159" fill="none" xmlns="http://www.w3.org/2000/svg">
<path d="M118.56 97.3848H86.7341V136.561H118.56V97.3848Z" fill="#FF734F"/>
<path fill-rule="evenodd" clip-rule="evenodd" d="M77.451 59.0666C80.8817 56.4552 89.4944 55.2808 93.1563 57.795C96.7726 60.3199 97.1673 64.4032 98.852 68.1591C100.442 67.4094 103.068 68.4832 103.529 69.9577C104.101 70.6533 104.126 72.6081 104.521 73.5431C121.676 76.2725 124.281 89.642 126.346 104.821C129.078 120.223 135.279 135.591 132.587 151.441C132.938 151.948 133.215 152.441 133.47 153.027C134.083 154.069 133.294 155.544 132.058 155.487C130.458 155.346 128.874 155.155 127.266 155.095C122.812 154.94 118.352 154.959 113.895 155.016L113.286 155.023C90.8225 155.303 68.3603 155.853 45.8957 156C45.0807 156.001 44.6818 155.271 44.7906 154.549C45.0097 153.098 45.213 151.647 45.4253 150.195C40.1118 151.598 34.4631 151.951 29.1647 150.343C28.794 149.965 30.0283 150.17 30.2241 150.113C25.3479 146.782 26.8041 139.765 27.2361 134.711C29.922 117.395 30.8688 98.235 41.2463 83.4584C45.7357 77.4278 52.3177 72.653 59.8808 71.5792L60.0907 71.5501C62.3021 71.255 64.7667 71.1603 66.7002 69.9577C68.8749 68.2223 69.8016 65.0158 72.0894 64.9859C72.8448 64.9759 73.8725 65.9317 74.9784 66.58C75.0609 65.1538 75.8302 63.9495 76 62.8432L76.0138 62.7485C76.191 61.4586 75.9483 60.2983 77.451 59.0666ZM114.321 105.278C109.5 101.93 97.0452 103.612 96.7601 103.8C96.1318 104.212 95.8616 104.249 95.5217 104.785C95.1868 104.83 94.8518 104.876 94.5169 104.923C93.8462 105.142 94.3432 105.968 95.1186 105.674C94.6524 107.684 96.0254 109.114 96.5714 111.102C96.7493 111.747 96.5781 112.908 96.5714 113.568C96.6246 114.409 97.5546 115.402 97.4 116.245C96.849 119.245 93.8578 122.171 95.1186 125.079C95.9539 126.722 98.4664 127.56 100.137 128.118C103.597 129.445 109.627 128.068 111.637 125.079C112.709 123.485 113.952 119.464 114.592 118.216L114.733 116.237C115.083 111.319 115.394 106.023 114.321 105.278Z" fill="#EDB98A"/>
<path fill-rule="evenodd" clip-rule="evenodd" d="M71.9111 64.9956L73.2908 65.8417L81.3041 69.802C82.8575 70.2367 83.6343 70.7578 83.6343 71.3645V77.5497C83.6343 78.3775 85.0919 80.2534 88.0075 83.1773L90.7012 80.4927L90.6413 80.1412C90.3845 78.6269 90.2565 77.6137 90.2565 77.1026C90.2565 76.5524 92.892 74.4638 98.163 70.8359L100.469 68.6658L100.223 67.9187C101.645 67.986 103.186 68.8612 103.529 69.9582C104.101 70.6539 104.126 72.6087 104.521 73.5437C121.676 76.2731 124.281 89.6426 126.346 104.821C129.078 120.224 135.279 135.592 132.587 151.442C132.938 151.949 133.215 152.441 133.47 153.027C134.083 154.07 133.294 155.545 132.058 155.488C130.458 155.347 128.874 155.156 127.266 155.096C122.812 154.941 118.352 154.96 113.895 155.016L113.286 155.024C90.8225 155.304 68.3603 155.854 45.8957 156C45.0807 156.002 44.6818 155.271 44.7906 154.55C45.0097 153.099 45.213 151.648 45.4253 150.196C40.1118 151.599 34.4631 151.952 29.1647 150.344C28.794 149.966 30.0283 150.171 30.2241 150.113C25.3479 146.782 26.8041 139.766 27.2361 134.712C29.922 117.395 30.8688 98.2356 41.2463 83.459C45.7357 77.4284 52.3177 72.6536 59.8808 71.5798L60.0907 71.5507L60.302 71.5233C62.458 71.249 64.8281 71.1227 66.7002 69.9582C68.8175 68.2694 69.7518 65.1851 71.9111 64.9956ZM91.1118 101.297C90.3255 101.297 88.7165 102.517 86.2829 104.957L86.0685 105.056C83.127 106.421 81.1783 107.606 80.2225 108.61L80.1885 108.646C79.2229 109.682 77.3107 112.435 74.4521 116.907L70.3123 119.354H68.746L67.6308 127.44L70.3123 133.213L76.3862 131.168L86.2829 128.561L91.962 122.801L95.1652 121.726C94.777 122.848 94.6357 123.966 95.1186 125.08C95.9539 126.722 98.4664 127.56 100.136 128.119C103.597 129.446 109.627 128.069 111.637 125.08C112.709 123.485 113.952 119.464 114.591 118.217L114.775 115.646C115.105 110.903 115.351 105.994 114.32 105.279C109.499 101.931 97.0443 103.613 96.7592 103.801C96.1318 104.213 95.8616 104.25 95.5217 104.786L95.3463 104.809L96.3345 103.469L95.9846 103.282C93.4871 101.959 91.8631 101.297 91.1118 101.297ZM95.1186 105.674C94.6723 107.599 95.9115 108.992 96.4975 110.851L94.9998 107.986V105.712C95.0388 105.702 95.0787 105.689 95.1186 105.674Z" fill="white"/>
<path fill-rule="evenodd" clip-rule="evenodd" d="M71.2496 64.6959C71.5824 64.4017 72.0749 64.7715 71.8634 65.1696C71.3881 66.0639 70.9006 66.9117 70.2627 67.7029C69.8759 68.1816 69.4616 68.6354 69.0418 69.0834C70.1192 70.0159 71.0433 71.172 71.916 72.2566C73.0318 73.6429 74.0869 75.0882 75.3394 76.3574C76.5748 77.6082 77.9408 78.4834 79.5924 79.0668L79.9259 79.1824C81.5851 79.7642 83.3584 80.5512 84.2936 82.1212C84.4781 82.4304 84.1067 82.8135 83.7945 82.6199C82.1694 81.6142 80.26 81.4123 78.4911 80.7474C76.7824 80.1057 75.2927 79.1175 73.9766 77.8567C72.6627 76.5976 71.5595 75.1655 70.4087 73.7634C69.2707 72.3771 68.0455 71.1928 66.6995 70.0201C64.6224 71.4172 62.2514 72.0247 59.8406 72.6215L59.5773 72.6863C57.1636 73.2839 54.7627 73.9779 52.4982 75.0176C50.5016 75.9352 48.5378 77.0298 46.9115 78.5224C45.1851 80.1066 43.8414 82.1287 42.6116 84.1068C39.8607 88.5325 37.9266 93.3813 36.224 98.2882C34.4531 103.392 32.9719 108.599 31.7761 113.868C31.1679 116.547 30.674 119.246 30.268 121.964C30.0726 123.273 29.8991 124.584 29.7466 125.899C29.5838 127.303 29.5464 128.747 29.1156 130.097C28.9309 130.675 28.4948 130.916 28.0582 130.895L27.9696 132.004C27.852 133.481 27.7424 134.96 27.7054 136.447C27.644 138.919 27.6718 141.385 27.8498 143.852L27.8749 144.189C28.0147 145.989 28.3272 148.013 29.6818 149.331C31.0847 150.696 33.242 151.126 35.1328 151.15C39.5367 151.208 43.7758 149.128 47.6728 147.303C51.6862 145.424 55.59 143.338 59.4003 141.076C61.3407 139.923 63.2602 138.733 65.1552 137.508C66.0851 136.906 67.0085 136.296 67.9249 135.674C68.4498 135.318 68.9473 134.928 69.4816 134.612C69.2198 134.368 69.1028 133.985 69.3222 133.651C67.7775 132.31 67.1345 129.918 67.0594 127.983C66.9986 126.421 67.2286 124.863 67.4101 123.316C67.5017 122.535 67.6148 121.757 67.7322 120.98C67.7787 120.673 67.8141 120.345 67.8683 120.02C63.6971 122.312 59.409 124.352 55.0075 126.165C52.7512 127.094 50.4661 127.929 48.1495 128.696L47.68 128.849C45.485 129.568 43.2374 130.247 40.9681 130.657C40.8469 130.679 40.7483 130.5 40.8779 130.443C43.0893 129.468 45.3773 128.645 47.622 127.747L47.9908 127.596C47.9484 127.594 47.9045 127.588 47.8587 127.577C46.5422 127.26 45.2361 126.77 43.945 126.358C42.7467 125.975 41.4004 125.735 40.2804 125.158C40.1942 125.114 40.2424 124.994 40.3263 124.988C41.5852 124.901 42.9519 125.267 44.1861 125.483L44.6498 125.565C45.4265 125.701 46.2205 125.848 46.9935 126.04C47.0215 125.782 47.1661 125.522 47.3719 125.37C49.6368 123.693 49.4069 120.306 49.6491 117.81L49.8288 115.955C50.1447 112.711 50.4789 109.467 50.9868 106.246C51.0139 106.074 51.2801 106.124 51.2811 106.286C51.3073 110.278 51.0059 114.252 50.8548 118.237L50.8313 118.891C50.7478 121.35 50.6823 123.904 49.1328 125.797C49.3494 125.67 49.6424 125.67 49.8179 125.878C50.0336 126.135 50.1582 126.423 50.1543 126.706C51.5545 126.119 52.9486 125.517 54.3359 124.902C58.7962 122.928 63.1629 120.717 67.4142 118.326C67.8717 118.068 68.3065 118.27 68.5328 118.61L68.5654 118.605C68.5709 118.604 68.5764 118.603 68.5822 118.603L68.6145 118.603H68.6181C69.2165 118.273 70.0318 118.508 70.5453 118.987C70.5605 119.002 70.5734 119.017 70.5869 119.032C71.2371 118.741 71.8441 118.347 72.395 117.848C73.5224 116.826 74.4774 115.563 75.3098 114.297C76.8429 111.964 78.1451 109.37 80.2161 107.451C81.8987 105.891 83.9848 104.92 86.1732 104.31C86.1641 104.246 86.1882 104.178 86.2331 104.133C86.3453 104.017 86.425 103.977 86.5705 104.047C86.5821 104.053 86.5888 104.06 86.5938 104.069L86.8074 103.705C86.9237 103.506 87.0434 103.307 87.085 103.255C87.3335 102.942 87.5895 102.632 87.8488 102.328C88.2893 101.813 88.7904 101.306 89.3714 100.949C90.643 100.168 91.9803 100.61 93.2876 101.037C94.0772 101.294 94.8643 101.561 95.653 101.823L95.7345 101.85C96.3229 102.038 97.0102 102.204 97.2737 102.826C97.3776 103.073 97.3934 103.328 97.3452 103.577C102.93 102.157 109.133 102.81 114.583 104.476C114.792 104.54 115.001 104.712 115.045 104.937C115.669 108.139 115.947 111.421 115.665 114.676C115.421 117.486 114.798 120.241 113.624 122.813L113.558 122.958C112.454 125.343 110.706 128.282 108.036 129.029C106.424 129.48 104.64 129.214 102.996 129.132C101.398 129.051 99.7646 129.04 98.1813 128.789C96.7717 128.564 95.5358 127.933 94.6648 126.787C93.9135 125.798 93.5179 124.604 93.1929 123.416C93.045 123.463 92.897 123.513 92.7524 123.569C92.1399 123.809 91.6212 124.194 91.1516 124.649C90.1609 125.608 89.3922 126.773 88.3557 127.688C87.4174 128.516 86.3478 129.161 85.2008 129.657C82.8243 130.683 80.2746 131.093 77.7606 131.637L77.5852 131.675C75.6926 132.09 73.7608 132.6 72.0902 133.585C72.0576 133.875 71.9254 134.148 71.7136 134.327C72.0082 134.603 72.133 135.041 71.8741 135.452C71.1509 136.599 69.9051 137.252 68.7868 137.986L68.7141 138.033C67.6139 138.763 66.5041 139.477 65.3853 140.178C63.1109 141.601 60.789 142.946 58.4343 144.232C54.6469 146.3 50.7783 148.25 46.8396 150.021C47.0761 151.183 46.9896 152.382 47.1673 153.552L47.1946 153.719C47.2705 154.153 47.168 154.517 46.8687 154.801L46.837 154.83L46.8375 154.825L46.8094 154.851L46.8001 154.86L46.8032 154.857C46.7687 154.889 46.7331 154.918 46.6968 154.943L46.6506 154.973C46.3624 155.148 45.9912 155.145 45.6961 154.991L45.6623 154.973L45.6056 154.94C45.2157 154.716 44.9467 154.161 45.1085 153.719C45.5062 152.635 45.6563 151.477 46.0235 150.385L45.7322 150.515L45.3483 150.682C41.1959 152.477 36.5834 153.988 32.0591 152.765C30.06 152.224 28.1915 151.08 27.1913 149.215C26.207 147.381 26.0679 145.251 26.0156 143.21C25.9511 140.691 26.0863 138.134 26.4186 135.637C26.6416 133.961 26.9114 132.253 27.3275 130.594C27.1135 130.405 26.9561 130.134 26.9146 129.799C26.7182 128.215 27.0619 126.567 27.2723 124.991C27.4778 123.452 27.705 121.916 27.9618 120.385C28.4803 117.293 29.0828 114.207 29.7842 111.151C31.0326 105.712 32.681 100.369 34.6656 95.1549L34.8394 94.7011C36.6733 89.9346 38.7967 85.2704 41.7534 81.0831C43.1678 79.0793 44.663 77.2633 46.6615 75.8196C48.5338 74.4674 50.6457 73.4933 52.8252 72.7486C55.0071 72.004 57.2496 71.5053 59.5318 71.1944C61.8495 70.8794 64.296 70.6858 66.4581 69.7358C66.1846 69.2455 66.4193 68.5839 66.8796 68.2797C68.4287 67.2566 69.8612 65.9259 71.2496 64.6959ZM120.839 109.182C120.903 109.084 121.057 109.146 121.029 109.262C120.276 112.348 119.569 115.439 119.106 118.583C118.273 124.258 118.426 130.007 118.494 135.725L118.497 136.02C118.533 139.1 118.581 142.179 118.683 145.258C118.735 146.813 118.836 148.383 118.781 149.94C118.751 150.785 118.526 151.583 118.446 152.418C118.376 153.147 118.438 153.888 118.473 154.618C118.496 155.104 117.779 155.083 117.731 154.618L117.669 154.017C117.587 153.255 117.487 152.499 117.237 151.771C116.937 150.894 116.793 150.034 116.69 149.114C116.53 147.704 116.459 146.281 116.398 144.861L116.355 143.879C116.099 137.946 116.108 131.986 116.523 126.059L116.554 125.636C116.966 120.035 117.68 113.982 120.839 109.182ZM104.779 73.8756C104.582 73.7942 104.651 73.4966 104.869 73.549L105.265 73.6429C108.169 74.3386 111.02 75.0916 113.731 76.3856C116.443 77.6797 118.739 79.6129 120.563 81.9891C124.11 86.6085 125.584 92.2219 126.748 97.8311C128.04 104.063 129.218 110.318 130.522 116.548L130.765 117.709C131.971 123.511 133.111 129.317 133.95 135.189L134.011 135.615C134.857 141.653 135.367 147.9 134.443 153.953C134.26 155.15 132.267 154.852 132.345 153.669C132.569 150.248 132.73 146.846 132.575 143.417C132.419 139.988 132.097 136.574 131.617 133.175C131.214 130.315 130.613 127.49 130.08 124.652L129.997 124.204C129.55 121.791 129.091 119.38 128.632 116.968L127.947 113.357C126.92 107.952 125.873 102.541 124.689 97.1695L124.619 96.8529C123.461 91.685 121.754 86.271 118.28 82.1669C114.755 78.0022 109.708 75.9044 104.779 73.8756ZM91.9686 128.694C92.0534 128.505 92.3501 128.525 92.4416 128.694C92.7989 129.352 92.838 130.193 92.9062 130.937L92.9128 131.014C92.9992 131.921 93.0749 132.832 93.1214 133.742C93.2095 135.471 93.2519 137.196 93.2469 138.927C93.2411 140.7 93.2054 142.471 93.1098 144.242L93.084 144.716C92.9967 146.255 92.8496 147.971 92.1182 149.316C91.8523 149.805 91.1292 149.662 90.9755 149.167C90.471 147.547 90.7303 145.627 90.8599 143.969L90.9597 142.675C91.0594 141.381 91.1541 140.086 91.2298 138.791C91.3328 137.018 91.4176 135.243 91.4999 133.47C91.5265 132.894 91.5547 132.318 91.5855 131.742L91.632 130.877C91.6719 130.155 91.6686 129.362 91.9686 128.694ZM35.2448 130.989L35.4681 130.774C36.1537 130.103 37.02 129.07 38.0336 129.134C38.4378 129.16 38.6953 129.494 38.6115 129.892C38.4325 130.742 37.5653 131.182 36.9412 131.701C36.2574 132.27 35.613 132.876 34.9698 133.49C34.3992 134.033 33.8504 134.593 33.3148 135.169L33.1146 135.386C32.9226 135.595 31.5554 136.832 31.7033 137.152L31.7112 137.167C31.7524 137.228 31.6839 137.312 31.6157 137.29C31.0253 137.104 31.0621 136.599 31.2853 136.086C31.7142 135.101 32.4652 134.19 33.1211 133.349C33.7752 132.511 34.4831 131.729 35.2448 130.989ZM94.108 106.294C93.6517 105.216 91.9703 105.239 91.0154 105.304C88.6109 105.466 86.0095 106.074 83.8702 107.197C81.6522 108.361 80.1582 110.228 78.8214 112.291L78.7589 112.388C77.456 114.413 76.2011 116.809 74.1609 118.201C73.1217 118.91 71.9083 119.558 70.6475 119.838C70.5609 119.991 70.4207 120.111 70.2368 120.154L70.1513 120.174C69.7923 120.253 69.2344 120.341 68.7525 120.289C68.7557 120.524 68.7532 120.758 68.7592 120.981C68.7761 121.621 68.7834 122.264 68.7834 122.904C68.7837 124.245 68.7116 125.589 68.7676 126.93C68.8172 128.116 68.9847 129.356 69.5546 130.416C69.9725 131.194 70.5241 131.709 71.19 132.201C72.8279 131.202 74.6801 130.595 76.5599 130.137C78.8334 129.584 81.1611 129.215 83.3829 128.465C84.4522 128.104 85.4801 127.632 86.4118 126.99C87.4 126.309 88.1554 125.386 88.9325 124.484L89.0539 124.345C89.8468 123.436 90.712 122.566 91.8323 122.073C92.7973 121.649 94.0689 121.573 94.9125 120.916C95.3538 120.572 95.3904 120.074 95.4369 119.563C94.8967 119.641 94.3249 119.517 93.7863 119.454L93.507 119.421C92.9976 119.361 92.5006 119.294 91.9994 119.164C91.9063 119.14 91.9063 119 91.9994 118.976C92.5912 118.823 93.1788 118.758 93.7863 118.687L93.9293 118.669C94.4786 118.597 95.0563 118.488 95.5948 118.609C95.6921 118.241 95.8317 117.89 96.0279 117.538C96.303 117.044 96.8232 116.484 96.8931 115.906C96.9147 115.734 96.8739 115.531 96.7925 115.379L96.7651 115.326C96.731 115.266 96.6903 115.203 96.6312 115.165C96.6246 115.173 96.6105 115.182 96.5806 115.191C96.1658 115.322 95.8035 115.118 95.6115 114.806C94.7961 114.907 93.906 114.873 93.1414 114.907L92.3684 114.944C91.5423 114.982 90.6787 114.999 89.9025 114.832C89.7936 114.808 89.7612 114.628 89.8701 114.582C90.8242 114.174 91.9819 114.044 93.0034 113.887C93.5744 113.8 94.1487 113.733 94.7213 113.656C95.1028 113.604 95.5067 113.519 95.9015 113.499C96.8914 112.267 96.3586 110.324 94.9806 109.793C94.4786 110.014 94.0273 109.886 93.4788 109.838C92.9319 109.792 92.3834 109.759 91.834 109.762C90.7328 109.767 89.5659 110.056 88.4754 109.931C88.2976 109.911 88.133 109.675 88.3092 109.532C89.1445 108.851 90.3405 108.629 91.4002 108.484L91.6196 108.455C91.9745 108.408 92.4066 108.34 92.8546 108.299C92.956 108.102 93.138 107.953 93.4106 107.915C93.4921 107.904 93.5735 107.898 93.655 107.891L93.6542 107.883C94.3199 107.851 94.2908 106.727 94.108 106.294ZM48.5136 127.331C48.5018 127.349 48.4889 127.367 48.4752 127.383L48.4541 127.407L48.5636 127.363L48.5136 127.331ZM105.73 103.885C102.927 103.583 100.12 103.647 97.3086 103.728C97.0834 104.463 96.3005 105.089 95.5425 105.113C96.1367 106.017 96.1974 107.24 95.781 108.199C96.6653 108.55 97.4275 109.183 97.8896 110.083C98.5312 111.33 98.4473 112.719 97.8131 113.873C98.3542 114.362 98.6741 115.158 98.6417 115.906C98.606 116.743 98.1082 117.456 97.6934 118.148C97.2463 118.896 97.2313 119.555 97.0942 120.393C96.8931 121.62 96.0653 122.363 95.0006 122.827L95.0571 123.05C95.3314 124.118 95.673 125.245 96.4576 126.026C97.4674 127.031 99.0332 127.022 100.366 127.085L100.43 127.088C101.651 127.149 102.872 127.22 104.093 127.29L105.008 127.341C106.414 127.418 107.763 127.427 108.91 126.499C110.784 124.983 112.068 122.474 112.881 120.253C114.586 115.591 114.607 110.476 113.824 105.62C111.198 104.774 108.473 104.179 105.73 103.885ZM82.4182 111.619L82.4388 111.62C83.0159 111.686 83.4125 112.153 83.5537 112.707C83.7588 113.513 83.6582 114.241 84.1517 114.968C84.6594 115.716 84.9714 116.314 85.0454 117.238C85.0753 117.619 85.062 117.998 85.1468 118.369L85.2074 118.63C85.2731 118.908 85.3263 119.176 85.2939 119.474C85.264 119.746 85.1318 119.958 84.8585 120.045C83.9687 120.33 83.2816 119.675 83.0517 118.845C82.853 118.13 83.1183 117.276 82.8381 116.604C82.6828 116.231 82.3965 115.92 82.2348 115.544C82.0745 115.173 81.994 114.784 81.9683 114.38C81.9195 113.615 82.5961 112.697 82.2186 112.003C82.1383 111.856 82.2293 111.614 82.4182 111.619ZM70.5976 103.728C71.2002 103.606 71.8839 103.326 72.4781 103.558C72.7836 103.678 72.9346 104.05 72.6764 104.31C72.2284 104.759 71.5771 104.783 70.9736 104.89L70.9204 104.899C70.2068 105.031 69.4919 105.156 68.7761 105.275C67.4291 105.498 66.0791 105.695 64.7243 105.862C63.3329 106.034 61.9376 106.188 60.5402 106.303L59.9993 106.348C58.8189 106.442 57.5908 106.513 56.4327 106.333C56.2644 106.306 56.2915 106.061 56.4327 106.019C57.7014 105.635 59.0932 105.531 60.4049 105.369C61.7994 105.196 63.1916 105.014 64.5801 104.797C65.9664 104.58 67.3509 104.348 68.7303 104.091C69.3538 103.976 69.9763 103.854 70.5976 103.728ZM92.3418 102.496C91.8124 102.308 91.2306 102.032 90.658 102.124C89.6698 102.284 88.7904 103.247 88.0083 103.88L88.4006 103.804C90.4103 103.418 93.0715 103.002 94.7587 104.279C94.7629 104.271 94.7662 104.265 94.7712 104.257C94.9075 104.05 95.0654 103.889 95.2374 103.712C95.2541 103.696 95.2699 103.681 95.2857 103.665L95.3779 103.566L95.166 103.492C94.7105 103.332 94.1711 103.124 94.0863 103.093L94.0805 103.091C93.4996 102.894 92.9195 102.701 92.3418 102.496ZM75.8305 60.3915C75.7478 59.3285 77.4031 59.3376 77.4852 60.3915C77.664 62.6937 77.1458 64.9743 76.0304 66.9923C76.0221 67.0064 76.0131 67.0197 76.0045 67.0338C76.7021 67.397 77.4078 67.7444 78.129 68.0561C79.0517 68.4542 79.9918 68.8166 80.9487 69.1241C81.8142 69.4025 82.8806 69.5122 83.6083 70.0915C85.1426 71.3133 84.5663 73.8482 84.2711 75.4913L84.2251 75.7507C84.078 76.5959 83.9717 77.4636 84.3284 78.2748C84.7092 79.1416 85.4792 79.7841 86.1666 80.405L86.3054 80.5304C86.9138 81.0848 87.6086 81.758 88.0557 82.5094C88.463 81.6674 89.0182 80.9793 89.6058 80.2038C90.0246 79.6511 89.7263 79.4691 89.4254 78.9289C89.1353 78.4094 88.994 77.8551 89.0846 77.2616C89.2517 76.1662 90.1277 75.375 90.9995 74.7807C92.0285 74.0793 93.1779 73.559 94.2418 72.9065C96.4285 71.5651 98.5578 70.0317 100.477 68.3287C100.53 68.2822 100.621 68.3437 100.579 68.4077C99.0631 70.7124 97.2862 72.7029 95.102 74.3934C94.2168 75.0791 93.2868 75.6476 92.3501 76.2452L92.0808 76.4172C91.7043 76.6607 91.2356 76.9865 91.0652 77.4013C90.8948 77.8177 91.2589 78.1327 91.4558 78.4784C92.0792 79.5747 91.7783 80.5978 91.0395 81.5278L91.0045 81.571C90.2698 82.4761 89.713 83.3172 89.447 84.4733C88.8752 86.9575 89.6714 89.544 90.5059 91.8753L90.5391 91.9675C90.9904 93.2242 91.47 94.4717 91.8623 95.7483L91.9695 96.1015C92.3252 97.2759 92.6161 98.4353 92.2172 99.643C92.0817 100.054 91.5215 100.151 91.2888 99.7643C90.4676 98.4004 90.2624 96.7598 89.7479 95.2613C89.2459 93.8002 88.6699 92.3657 88.1854 90.8987C87.5612 89.0104 87.144 86.9775 87.3709 84.9961C87.3642 84.9844 87.3567 84.9736 87.3509 84.9612L87.1922 84.6138C86.7592 83.6738 86.3403 82.8526 85.5524 82.1029C84.7311 81.3209 83.8393 80.6285 83.1927 79.6819C81.7885 77.6257 82.6569 75.3384 82.8265 73.0902L82.846 72.8143C82.8768 72.3472 82.8937 71.7131 82.5886 71.3898C82.2455 71.0265 81.4408 70.9335 80.9855 70.7722C79.8089 70.3558 78.6494 69.8713 77.5451 69.2887C76.4938 68.7343 75.4755 68.1226 74.5274 67.4045L74.0469 67.0438C73.2886 66.472 72.5024 65.847 71.9942 65.0691C71.9356 64.9793 72.0352 64.8347 72.1414 64.8771C72.9898 65.2211 73.7648 65.7689 74.5585 66.2451C74.5709 66.216 74.5852 66.1869 74.6015 66.157C75.5835 64.3809 75.9874 62.4128 75.8305 60.3915ZM102.929 72.5633C103.267 71.6374 104.807 71.7089 104.746 72.8093C104.699 73.6554 104.34 74.4184 104.012 75.1863L103.976 75.2686C103.637 76.069 103.245 76.8203 102.777 77.5534C101.881 78.9546 100.833 80.2553 99.7122 81.4837C98.6966 82.5966 97.3635 83.2773 95.8276 83.1643C95.1801 83.1161 94.5268 82.9515 93.9592 82.6282C93.286 82.2442 92.5546 81.0915 91.6952 81.3707C91.6121 81.3981 91.534 81.276 91.6063 81.2186C92.5978 80.4199 93.724 81.6583 94.674 81.9567C96.106 82.4063 97.5746 81.9093 98.4955 80.7524C99.4579 79.5447 100.343 78.1925 101.152 76.8777C101.562 76.2103 101.936 75.5171 102.26 74.8032C102.586 74.0818 102.661 73.2988 102.929 72.5633ZM100.621 66.8618C100.58 66.7338 100.739 66.6125 100.852 66.6856C101.503 67.1095 102.068 67.6705 102.669 68.1617C103.337 68.7069 104.009 69.2405 104.691 69.7666C105.686 70.5337 104.533 71.9449 103.657 71.1072C102.458 69.9619 101.146 68.4634 100.621 66.8618ZM97.0418 62.3779C97.307 61.3564 98.8736 61.7778 98.6451 62.7868L98.6376 62.8175C98.2054 64.4839 98.8213 66.1803 100.136 67.2607L100.184 67.3006C101.015 67.9655 99.8377 69.1291 99.0141 68.47C97.2164 67.0313 96.4684 64.5887 97.0418 62.3779Z" fill="black"/>
<path fill-rule="evenodd" clip-rule="evenodd" d="M90.033 9.47046C110.907 10.1324 112.166 20.0643 112.166 36.7204C112.166 53.3763 101.337 63.8726 97.3502 65.7052C93.3633 67.5378 82.864 75.4094 73.3893 71.7824C63.9146 68.1545 66.6584 52.828 66.6584 46.2427C66.6584 39.6575 69.1589 8.80847 90.033 9.47046Z" fill="#EDB98A"/>
<path fill-rule="evenodd" clip-rule="evenodd" d="M69.8572 35.9039C74.1732 18.2749 82.0522 9.67372 93.4945 10.1006C110.657 10.7408 110.476 28.264 109.4 26.6662C108.696 25.6223 103.771 21.9758 94.6232 15.7265L94.058 15.3407L69.8572 35.9039Z" fill="#DBC69D"/>
<path fill-rule="evenodd" clip-rule="evenodd" d="M98.5005 60.2353C94.6674 62.3788 90.2782 62.4619 86.155 61.113C83.6819 60.306 81.4145 59.0584 79.2925 57.5666C77.4465 56.2675 75.799 54.8264 74.1667 53.2971C72.8228 50.3285 71.6261 47.3653 71.0657 44.1353C70.5636 41.236 70.497 38.2255 71.0795 35.3318C75.3873 31.7823 79.6685 28.2036 83.944 24.614C86.1217 22.7857 88.3043 20.9673 90.5134 19.1779C91.6354 18.2693 92.7466 17.3468 93.8645 16.4341C94.049 16.2841 94.2318 16.134 94.4164 15.984C96.7235 17.6761 99.1978 19.1266 101.489 20.8463C102.689 21.7479 103.855 22.7078 104.966 23.7177C105.548 24.2471 106.117 24.7931 106.672 25.353C107.18 25.8643 107.669 26.5977 108.389 26.791C108.487 26.8172 108.58 26.8227 108.668 26.8102C109.63 35.2511 110.314 44.3659 106.191 52.0316C104.392 55.3757 101.842 58.3653 98.5005 60.2353ZM73.5635 63.3379C73.0357 62.8533 73.8224 62.0688 74.348 62.5516C77.6495 65.5811 81.9657 67.1868 86.3254 67.9298C87.0285 68.0504 86.7293 69.1208 86.0303 69.0012C81.4787 68.2257 77.0049 66.4953 73.5635 63.3379ZM69.6018 67.9855C68.9717 67.6464 69.5326 66.6873 70.1617 67.0256C72.7339 68.4077 75.5552 69.125 78.4169 69.6104C79.1207 69.7292 78.8205 70.7997 78.122 70.6817C75.1631 70.1805 72.2598 69.4134 69.6018 67.9855ZM80.0704 21.1647C82.2047 19.246 84.4986 17.4205 86.9213 15.88C89.3731 14.3212 92.0518 13.389 94.9458 13.3668C94.743 13.5294 94.551 13.71 94.3549 13.8779C93.8088 14.3462 93.2636 14.8172 92.7184 15.2867C91.6288 16.2272 90.5358 17.1662 89.4595 18.1222C87.3402 20.0059 85.2141 21.88 83.0993 23.7679C79.0344 27.3966 75.057 31.1043 71.1653 34.9193C71.1863 34.8262 71.2085 34.7331 71.2305 34.6402C72.5189 29.2498 76.0235 24.8029 80.0704 21.1647ZM96.8017 13.6017C96.8158 13.56 96.8249 13.5196 96.8308 13.4808C102.385 14.206 107.024 18.2999 108.558 23.6902C108.425 23.8764 108.351 24.0973 108.379 24.3319C108.393 24.4501 108.407 24.5696 108.421 24.6876C108.23 24.4989 108.035 24.3223 107.869 24.1542C107.315 23.593 106.749 23.0468 106.166 22.5148C104.974 21.4271 103.737 20.4103 102.433 19.4615C100.166 17.811 97.7118 16.294 95.0081 15.5021C95.186 15.3563 95.3638 15.2104 95.5425 15.0659C96.0761 14.631 96.5715 14.2727 96.8017 13.6017ZM106.759 7.83768C103.349 4.10477 98.6268 1.37079 93.6534 0.420568C88.9043 -0.488016 83.9883 0.110809 79.5019 1.87645C70.1141 5.57179 62.7069 13.6975 59.2384 23.1136C57.2163 28.5997 56.5534 34.6136 57.161 40.4206C57.7655 46.201 59.5032 52.1707 62.6653 57.0887C62.9552 57.5391 63.2727 57.9705 63.6056 58.3885C63.4572 60.0865 62.8913 61.7504 62.001 63.1983C61.9531 63.2756 61.9026 63.352 61.8528 63.4285C60.941 64.1125 59.9953 64.7541 59.0721 65.4165C58.272 65.9908 57.4801 66.5793 56.7277 67.2151C56.0175 67.8151 55.1927 68.4842 54.7119 69.2946C54.3179 69.9578 54.157 70.8604 54.6949 71.4929C55.343 72.2558 56.4411 71.9866 57.319 71.9866C57.3941 71.9866 57.4692 71.9882 57.5442 71.9891C57.8078 72.1553 58.0794 72.3049 58.3424 72.4445C61.0011 73.8566 63.6694 75.2529 66.3405 76.6417C71.6606 79.411 76.9584 82.2908 82.3878 84.8399C84.9037 86.0218 87.597 87.0557 90.4153 87.0515C93.0583 87.0474 95.4478 85.9952 97.5115 84.3969C99.8635 82.5751 101.831 80.2621 103.738 77.9948C104.501 77.088 105.249 76.1696 105.982 75.2387C107.392 74.7675 108.79 74.6304 110.046 75.5388C111.055 76.2685 112.383 75.2762 112.407 74.1816C112.415 73.7926 112.399 73.4094 112.356 73.0313C112.104 70.6975 110.964 68.5856 109.68 66.6266C108.978 65.5562 108.239 64.504 107.496 63.4617C107.321 63.2165 107.149 62.9705 106.982 62.7204C109.968 58.3162 112.337 53.4334 113.793 48.3307C115.323 42.9615 115.844 37.3934 115.502 31.8296C114.978 23.3025 112.642 14.2781 106.759 7.83768Z" fill="black"/>
<path fill-rule="evenodd" clip-rule="evenodd" d="M96.4052 54.1697C95.471 53.7882 94.6374 53.1532 94.0281 52.3411C93.8162 52.059 93.7614 51.7609 93.8054 51.4883C93.8561 51.1819 94.0373 50.904 94.2841 50.7178C94.5326 50.5309 94.8435 50.4387 95.1435 50.4857C95.4037 50.5265 95.6638 50.6692 95.8691 50.9652L95.9115 51.0244C96.2738 51.5143 96.7459 51.9163 97.2845 52.1755C97.8031 52.4252 98.3824 52.5418 98.9825 52.474C100.126 52.345 100.913 51.7271 101.751 50.8881C101.855 50.7821 101.959 50.6729 102.063 50.5619C102.129 50.4612 102.221 50.3966 102.322 50.3626C102.434 50.325 102.562 50.3271 102.678 50.3679C102.792 50.4071 102.892 50.4817 102.959 50.5807C103.024 50.675 103.061 50.7913 103.048 50.9252C102.972 51.7947 102.517 52.5708 101.871 53.1798C101.153 53.8572 100.203 54.3251 99.3074 54.4897C98.3209 54.67 97.3152 54.5404 96.4052 54.1697ZM99.7729 40.7552C100.823 41.3928 102.422 42.8797 101.292 44.4606C99.9632 45.8545 98.0499 44.2562 97.1066 43.5335C96.2331 42.9733 95.2507 44.414 96.0619 45.0681C102.875 50.1103 105.64 40.9219 100.303 40.0054C99.7164 39.9044 99.4978 40.5579 99.7729 40.7552ZM87.5628 34.8899C87.6792 33.4511 89.8709 33.1244 90.0894 34.5481C90.2839 35.8234 90.0545 36.9949 89.4794 38.1431C88.9309 39.24 87.5504 38.7283 87.4465 37.7295C87.306 36.3905 87.4905 35.7848 87.5628 34.8899ZM104.249 34.2527C104.555 33.8527 104.996 33.5795 105.525 33.7339C107.177 34.2164 106.69 36.5604 106.11 37.7014C105.794 38.321 104.776 38.4781 104.316 37.9325C103.565 37.0429 103.205 35.2662 104.16 34.3899C104.185 34.3446 104.214 34.2988 104.249 34.2527ZM89.4561 28.5943L89.7171 28.5486C90.525 28.4091 91.5281 28.275 92.0991 28.9237C92.4016 29.2676 92.5064 29.907 92.0991 30.2362C91.3835 30.8155 90.5914 30.591 89.7337 30.6401C89.0264 30.6806 88.3466 30.7977 87.6659 30.9922C86.1715 31.4192 84.9539 32.1985 83.6775 33.0542C83.51 33.1665 83.3391 32.9524 83.4189 32.7958C84.1557 31.3534 85.5831 30.1686 87.0135 29.4463C87.7764 29.0608 88.6117 28.741 89.4561 28.5943ZM102.743 27.9482L102.943 27.989C105.116 28.4432 107.939 29.3503 108.969 31.484C109.008 31.7857 108.967 31.8504 108.933 31.8927L108.922 31.9067C108.894 31.9428 108.872 31.9925 108.742 32.0336C108.705 32.0249 108.668 32.0157 108.631 32.006C108.16 31.8825 107.786 31.7122 107.425 31.5356L107.033 31.3427C106.578 31.1199 106.12 30.9052 105.634 30.7467C104.597 30.4086 103.53 30.1704 102.447 30.0432C102.212 30.0156 101.986 29.9364 101.807 29.8007C101.639 29.6719 101.509 29.4935 101.45 29.2563C101.374 28.9495 101.395 28.7171 101.561 28.4403C101.684 28.2323 101.861 28.0882 102.065 28.0055C102.272 27.9211 102.509 27.9012 102.743 27.9482Z" fill="black"/>
<path fill-rule="evenodd" clip-rule="evenodd" d="M112.211 41.6016C110.524 43.3444 107.708 43.8446 105.463 42.9099C99.698 40.5024 102.52 32.9937 106.965 30.9773C107.521 30.8389 108.262 30.5106 108.938 30.4361C109 30.4061 109.133 30.493 109.294 30.4109C114.196 30.9579 115.312 38.5643 112.211 41.6016ZM93.6192 42.0476C91.7267 44.5567 88.2077 45.3307 85.3337 44.1643C79.6544 41.9287 81.6686 35.2704 85.554 32.66C93.7621 29.5772 97.1515 37.4213 93.6192 42.0476ZM81.3084 36.4882C81.3032 36.4857 81.2979 36.4844 81.2925 36.4819C81.3225 36.4687 81.3525 36.4555 81.3824 36.4421C81.3727 36.4675 81.3621 36.4926 81.3526 36.518C81.3379 36.5079 81.325 36.4961 81.3084 36.4882ZM116.119 33.7761C115.655 33.777 114.986 33.8531 114.603 34.1744C113.656 30.9857 110.165 28.0347 107.128 30.1865C104.737 30.9552 102.963 32.66 101.955 34.9263C100.136 33.8452 97.277 34.3068 95.7003 35.7365C94.6681 32.3258 92.1265 31.1315 89.1012 30.9552C85.8 30.4147 82.5092 33.6197 81.4825 36.1909C80.6287 36.0938 79.353 35.8222 78.5498 36.3489C73.3371 34.9824 64.2236 34.229 63.1638 34.9883C62.4087 35.2779 61.9942 37.0598 63.049 37.1559C63.9683 37.0254 62.9417 35.8503 63.8684 35.7221C68.8053 35.4161 73.598 36.41 78.4827 36.827C78.9189 37.4135 80.3279 37.6096 81.0797 37.374C79.8957 41.7356 82.4515 44.703 86.2812 45.5918C92.2113 46.9534 97.37 41.651 95.8192 36.1358C97.6161 35.2425 99.6822 35.2808 101.639 35.7514C98.3691 47.7807 117.751 47.2409 114.723 34.5867C116.738 35.5883 117.176 33.9782 116.119 33.7761Z" fill="black"/>
<rect y="63" width="159" height="96" fill="url(#paint0_linear_230_64)"/>
<defs>
<linearGradient id="paint0_linear_230_64" x1="79.5" y1="63" x2="79.5" y2="159" gradientUnits="userSpaceOnUse">
<stop offset="0.323425" stop-color="#F6F6F6" stop-opacity="0"/>
<stop offset="1" stop-color="#F6F6F6"/>
</linearGradient>
</defs>
</svg>
