<svg width="159" height="168" viewBox="0 0 159 168" fill="none" xmlns="http://www.w3.org/2000/svg">
<path fill-rule="evenodd" clip-rule="evenodd" d="M116.596 97.4944C115.504 93.246 114.499 91.4441 112.56 89.9678C110.745 88.5862 108.095 87.4258 104.23 86.5782C100.204 85.8728 100.09 83.7738 99.0804 80.4008C98.7855 79.3862 97.3265 79.1162 96.6963 79.8472C96.6076 79.751 96.5151 79.663 96.4195 79.584C96.5053 79.0997 95.8029 77.7136 95.8262 77.2511C96.0713 72.4221 94.4965 69.9975 90.5662 69.0965C89.7119 68.9002 83.9058 68.7844 83.0723 69.016C79.429 70.026 75.8423 73.2343 76.3912 77.0985C75.2475 78.5973 74.1282 79.5126 72.3638 79.9954C69.616 80.3451 70.9964 119.39 75.7685 142.782C77.8161 152.819 126.775 135.736 124.563 130.709C124.876 129.788 124.305 128.776 124.563 127.824C124.749 127.136 125.227 126.851 125.468 126.169C125.806 125.21 125.439 123.922 125.057 122.943C124.901 122.456 125.345 121.93 125.468 121.432C126.053 119.083 124.714 119.29 123.747 117.72C123.762 117.715 124.013 116.595 124.012 116.6C124.159 115.8 123.789 114.775 123.466 114.107C123.248 113.656 122.78 113.373 122.315 113.425C122.783 111.83 123.375 110.504 124.012 108.968C125.138 106.261 126.209 103.429 127.826 100.979C128.488 99.9748 127.953 99.052 126.881 98.9835C123.413 98.7632 119.983 98.2623 116.596 97.4944Z" fill="#D08B5B"/>
<path fill-rule="evenodd" clip-rule="evenodd" d="M111.182 97.8232L103.265 111.262C103.265 111.262 105.143 111.45 105.904 111.816C106.664 112.182 110.154 116.633 110.154 116.633L110.708 119.083L109.394 121.059L109.907 122.299C109.907 122.299 110.272 121.459 111.182 120.806C112.092 120.154 114.1 119.083 114.1 119.083C114.1 119.083 113.433 118.725 113.433 118.305C113.433 117.885 112.845 116.092 114.1 115.415C115.354 114.737 121.838 113.153 121.838 113.153L128.408 99.2507L111.182 97.8232Z" fill="#AFAFAF"/>
<path fill-rule="evenodd" clip-rule="evenodd" d="M75.865 80.0869L101.003 84.5121L112.559 89.9675L114.446 91.425L103.265 111.262L86.0011 114.422L81.6029 125.881L82.5007 138.798L110.585 135.44L122.7 133.996L125.548 145.528L125.033 150.272L124.285 152.677L94.2527 160.811C94.2527 160.811 78.9596 159.324 76.2486 159.324C73.5377 159.324 53.6618 161.303 53.6618 161.303L49.063 160.811C49.063 160.811 38.8883 150.054 37.3101 146.225C35.7321 142.397 32.3196 119.125 32.3196 119.125L32.6953 115.55L41.486 92.857C41.486 92.857 42.6599 91.7883 44.1399 89.9675C45.6199 88.1468 75.865 80.0869 75.865 80.0869Z" fill="#FF734F"/>
<path fill-rule="evenodd" clip-rule="evenodd" d="M121.362 112.866C119.09 112.982 116.816 113.524 114.761 114.505C113.921 114.908 113.159 115.488 112.935 116.444C112.823 116.932 112.85 117.435 112.911 117.929C112.956 118.302 112.967 118.778 113.29 119.031C113.345 119.073 113.404 119.107 113.466 119.13C112.708 119.474 111.986 119.886 111.344 120.311C110.757 120.699 110.155 121.297 109.884 121.973C109.862 121.896 109.839 121.825 109.817 121.756C109.356 120.389 108.645 119.268 107.526 118.515C107.399 118.051 106.035 116.052 104.769 116.127C103.381 116.209 102.266 116.31 101.011 116.95C100.554 116.941 100.098 116.947 99.6465 116.967C99.569 116.969 99.5728 117.075 99.6465 117.084C100.013 117.13 100.378 117.181 100.744 117.242C101.614 117.381 102.481 117.559 103.329 117.778C104.347 118.043 105.4 118.308 106.35 118.77C108.195 119.666 109.337 122.009 109.102 124.048C109.064 124.382 108.934 125.393 108.472 125.289C108.081 125.201 107.926 124.382 107.789 124.079C107.424 123.275 106.764 122.75 105.974 122.394C105.045 121.975 104.051 121.692 103.089 121.363C102.544 121.175 101.999 120.988 101.452 120.802C100.893 120.61 100.362 120.344 99.7668 120.479C99.4073 120.56 99.366 120.99 99.5675 121.237C99.8751 121.613 100.331 121.724 100.773 121.878C101.357 122.082 101.94 122.286 102.522 122.489C103.423 122.803 104.367 123.068 105.246 123.454L105.218 123.516C105.146 123.496 105.062 123.568 105.076 123.656C105.208 124.469 105.391 125.409 105.188 126.224C105.027 126.87 104.462 127.585 103.728 127.395C103.843 127.29 103.886 127.108 103.808 126.939C103.517 126.316 99.7081 123.854 99.369 124.768C99.3577 124.8 99.3923 124.825 99.4201 124.82C99.7096 124.759 100.195 125.255 100.426 125.412C100.76 125.638 101.1 125.859 101.431 126.092C101.794 126.346 102.146 126.612 102.492 126.887C102.762 127.104 102.966 127.329 103.277 127.438C103.114 127.516 102.985 127.661 102.93 127.846C102.789 128.327 102.519 128.735 102.049 128.948C101.557 129.169 101.002 129.029 100.483 129.083C99.7758 129.156 99.1591 129.493 98.644 129.974C97.5632 130.987 97.0203 132.772 95.5079 133.251C94.6046 133.536 93.6021 133.357 92.6876 133.227C91.6663 133.082 90.6713 132.968 89.6425 133.119C88.6573 133.263 87.7262 133.606 86.8268 134.023C85.983 134.413 85.0511 134.856 84.3028 135.439C84.1488 134.963 83.9934 134.492 83.8755 134.005C83.5975 132.855 83.4471 131.683 83.4107 130.502C83.377 129.377 83.4396 128.246 83.536 127.127C83.5837 126.567 83.6589 126.01 83.7065 125.451C83.7189 125.31 83.7441 125.159 83.7629 125.008C85.0985 124.218 86.5019 123.611 87.9165 122.988C87.9203 122.987 87.924 122.984 87.9278 122.983C87.9722 122.963 88.0143 122.944 88.0587 122.926C88.0572 122.923 88.0556 122.92 88.0534 122.918C88.2151 122.819 88.3279 122.686 88.3956 122.538C90.4344 121.182 92.1386 119.33 93.4088 117.17C93.9413 116.265 94.4542 115.326 95.1506 114.533C95.8929 113.687 96.7736 113.184 97.8633 112.922C99.1381 112.616 100.451 112.433 101.757 112.328C102.47 112.272 103.267 112.184 104.044 112.188C104.585 112.191 105.115 112.237 105.601 112.372C106.322 112.57 106.743 113.12 107.195 113.676C107.627 114.209 108.058 114.743 108.461 115.299C108.843 115.825 109.204 116.37 109.517 116.941C109.705 117.282 109.879 117.634 110.026 117.997C110.078 118.126 110.145 118.272 110.176 118.405C110.208 118.54 110.15 118.682 110.3 118.682C109.68 118.69 109.268 120.241 109.884 120.205C110.751 120.155 111.187 119.113 111.017 118.188C110.714 116.537 109.077 114.544 108.754 114.122C108.039 113.189 107.3 111.972 106.156 111.539C106.139 111.533 106.122 111.527 106.105 111.521C106.438 111.204 106.702 110.825 106.954 110.439C107.213 110.041 107.522 109.586 107.608 109.115C107.661 108.815 107.289 108.644 107.112 108.906C106.856 109.29 106.732 109.775 106.54 110.196C106.344 110.623 106.107 111.027 105.919 111.458C105.466 111.319 104.977 111.255 104.48 111.233C105.108 110.381 106.18 108.736 106.309 108.526C106.903 107.547 107.469 106.54 108.009 105.53C108.592 104.436 109.092 103.297 109.651 102.191C109.969 101.564 110.288 100.931 110.64 100.323C110.761 100.114 110.892 99.9056 111.04 99.7161C111.069 99.6785 111.105 99.6469 111.139 99.6115C111.178 99.5897 111.218 99.5664 111.24 99.5536C111.443 99.4371 111.515 99.1656 111.658 98.9933C111.886 98.7151 112.153 98.6827 112.497 98.679C113.229 98.6715 113.963 98.7 114.694 98.7203C115.768 98.7504 116.84 98.7933 117.913 98.8497C118.238 98.867 118.561 98.885 118.885 98.9053C120.446 98.9979 122.004 99.1197 123.559 99.2693C124.935 99.4017 126.311 99.6168 127.688 99.7198C125.824 104.164 123.756 108.527 121.415 112.738C121.391 112.781 121.374 112.823 121.362 112.866ZM111.017 124.315C110.716 124.453 110.424 124.624 110.153 124.821C110.198 124.515 110.209 124.194 110.196 123.871C110.421 124.112 110.708 124.25 111.017 124.315ZM123.855 116.67C123.834 116.673 123.813 116.684 123.804 116.705C123.388 117.566 123.561 118.528 124.241 119.203C124.597 119.555 125.372 119.953 125.348 120.53C125.326 120.998 124.819 121.391 124.602 121.776C124.4 122.136 124.325 122.531 124.486 122.92C124.693 123.42 125.271 123.618 125.469 124.109C125.72 124.731 125.312 125.481 125.026 126.023C124.761 126.524 124.417 127.026 124.189 127.556C122.662 128.349 119.196 129.79 118.779 129.871C118.27 129.97 117.76 130.064 117.249 130.152C116.268 130.323 115.284 130.482 114.297 130.621C113.736 130.7 113.174 130.779 112.611 130.84C112.12 130.893 111.566 130.964 111.17 130.594C110.372 129.845 110.819 128.589 111.325 127.832C111.334 127.817 111.334 127.803 111.331 127.79C111.807 127.679 112.282 127.548 112.755 127.456C113.666 127.28 114.583 127.132 115.502 126.999C117.389 126.73 119.289 126.551 121.186 126.371C121.656 126.326 121.661 125.584 121.186 125.628C118.46 125.878 115.721 126.116 113.032 126.642C112.358 126.773 111.689 126.921 111.024 127.089C110.709 127.166 110.372 127.289 110.042 127.293C110.022 127.293 110.002 127.293 109.982 127.291C109.337 127.271 109.243 126.717 109.598 126.256C109.641 126.199 109.687 126.142 109.733 126.088C110.36 125.339 111.14 124.839 111.944 124.321C112.845 124.197 113.744 123.924 114.626 123.722C116.804 123.224 118.982 122.727 121.161 122.23C121.588 122.132 121.407 121.473 120.979 121.57C119.325 121.946 117.671 122.322 116.017 122.698L113.596 123.248C113.112 123.358 112.508 123.578 111.94 123.657C111.658 123.696 111.387 123.701 111.141 123.643C110.348 123.455 110.308 122.46 110.65 121.87C111.033 121.206 111.758 120.79 112.401 120.415C113.515 119.762 114.7 119.294 115.858 118.753C116.063 118.708 116.269 118.663 116.475 118.617C117.67 118.353 119.035 118.224 120.161 117.74C120.498 117.596 120.314 117.063 119.981 117.071C119.107 117.09 118.194 117.402 117.34 117.587C116.417 117.787 115.492 117.987 114.568 118.188C114.476 118.207 113.927 118.383 113.844 118.345C113.791 118.319 113.773 118.136 113.755 118.015C113.699 117.618 113.657 117.201 113.719 116.802C113.854 115.908 114.598 115.488 115.349 115.145C117.023 114.382 118.859 113.905 120.686 113.714C121.107 113.669 121.528 113.642 121.951 113.628C122.449 113.613 122.859 113.525 123.111 114.017C123.506 114.79 123.725 115.786 123.855 116.67ZM121.53 144.746C121.165 143.481 121.265 142.13 121.015 140.838C120.886 140.173 120.71 139.512 120.517 138.862C120.362 138.336 120.103 137.778 120.074 137.23C120.073 137.193 120.115 137.172 120.145 137.188C120.66 137.485 121.055 138.123 121.348 138.625C121.699 139.226 121.968 139.854 122.184 140.515C122.615 141.832 122.97 143.419 122.414 144.746C122.248 145.142 121.666 145.221 121.53 144.746ZM107.294 154.327C106.75 153.947 106.354 153.415 105.893 152.945C105.44 152.483 106.149 151.773 106.602 152.234C106.996 152.634 107.337 153.134 107.8 153.459C108.023 153.614 108.126 153.896 107.98 154.147C107.851 154.368 107.516 154.483 107.294 154.327ZM104.263 139.701C105.255 139.271 106.231 138.802 107.269 138.493C107.891 138.307 108.153 139.278 107.536 139.462C106.58 139.748 105.683 140.173 104.769 140.57C104.182 140.824 103.672 139.958 104.263 139.701ZM93.7834 139.4C93.5405 138.799 94.5106 138.541 94.7498 139.133C95.025 139.815 95.3409 140.479 95.6162 141.16C95.8583 141.761 94.8882 142.02 94.649 141.428C94.3737 140.746 94.0586 140.082 93.7834 139.4ZM83.44 151.395C83.2784 151.612 83.0088 151.728 82.7542 151.575C82.5409 151.448 82.4107 151.106 82.5744 150.887C83.0522 150.249 83.5363 149.618 84.0962 149.048C84.5503 148.586 85.2587 149.298 84.8052 149.759C84.3051 150.268 83.8668 150.824 83.44 151.395ZM81.9609 84.0927C82.421 84.4078 82.8241 84.7906 83.2172 85.1847C83.6742 85.6427 82.9652 86.3541 82.5083 85.8961C82.1771 85.5637 81.843 85.2268 81.4549 84.9606C81.2307 84.8071 81.1301 84.5214 81.2751 84.2724C81.4051 84.0498 81.7372 83.9393 81.9609 84.0927ZM97.009 100.276C96.7488 100.798 96.5149 101.31 96.4998 101.905C96.484 102.551 95.4815 102.551 95.4981 101.905C95.5169 101.127 95.8027 100.453 96.1434 99.768C96.4321 99.1881 97.2963 99.698 97.009 100.276ZM102.53 87.2784C103.069 86.9182 103.57 87.7891 103.036 88.1463C102.603 88.4359 102.17 88.7262 101.737 89.0157C101.198 89.3759 100.697 88.5043 101.231 88.1471C101.664 87.8575 102.097 87.568 102.53 87.2784ZM78.5824 110.003C78.4904 110.642 77.5246 110.368 77.6156 109.736C77.7566 108.757 77.9286 107.792 78.1932 106.839C78.3663 106.215 79.3331 106.482 79.1598 107.107C78.8953 108.059 78.7233 109.024 78.5824 110.003ZM75.0674 121.523C74.4222 121.509 74.4221 120.503 75.0674 120.517C75.6513 120.529 76.2254 120.684 76.7886 120.825C77.4151 120.981 77.148 121.952 76.522 121.794C76.0459 121.675 75.5611 121.533 75.0674 121.523ZM73.7703 144.729C73.5487 144.837 73.3213 144.934 73.0971 145.037C72.6485 145.243 72.2 145.449 71.7516 145.655C70.8176 146.085 69.8841 146.517 68.9514 146.95C67.0843 147.817 65.2029 148.654 63.3313 149.511C61.4227 150.386 59.5192 151.272 57.618 152.163C56.7224 152.582 55.8199 152.986 54.9191 153.395C54.149 153.744 53.1971 154.355 52.3517 154.412C52.3081 154.415 52.2936 154.36 52.3184 154.332C52.6378 153.967 53.1473 153.756 53.5671 153.519C53.9959 153.277 54.4327 153.049 54.8675 152.818C55.774 152.336 56.6816 151.858 57.5969 151.393C59.4276 150.464 61.2618 149.541 63.0964 148.62C64.9675 147.68 66.8362 146.734 68.7237 145.827C69.6124 145.4 70.5019 144.975 71.392 144.55C71.8742 144.32 72.3566 144.091 72.839 143.862C73.0474 143.763 73.2537 143.656 73.4667 143.568C73.7498 143.45 73.965 143.474 74.2569 143.402C74.733 143.284 74.9392 143.892 74.5737 144.156C74.2727 144.374 74.1143 144.56 73.7703 144.729ZM67.0781 155.04C66.9752 154.79 67.1906 154.484 67.4282 154.422C67.7127 154.347 67.9409 154.52 68.0448 154.773C68.3196 155.443 68.711 156.059 69.2149 156.579C69.6652 157.043 68.9568 157.754 68.506 157.29C67.8746 156.638 67.421 155.877 67.0781 155.04ZM62.1547 138.898C61.6976 138.44 62.4066 137.728 62.8635 138.187L64.1627 139.491C64.6197 139.949 63.9106 140.66 63.4538 140.201L62.1547 138.898ZM48.8253 136.773C47.8912 137.048 46.8019 137.301 46.165 138.1C46.134 138.139 46.0817 138.089 46.1004 138.05C46.9157 136.354 49.2536 135.76 50.8723 135.166C52.0172 134.746 53.192 134.397 54.3767 134.086C54.2582 132.73 54.5848 131.277 54.6983 129.928C54.8195 128.488 54.9181 127.043 54.9687 125.598C55.0205 124.124 55.033 122.641 54.9846 121.166C54.9365 119.698 54.7465 118.247 54.6632 116.783C54.6552 116.641 54.8517 116.635 54.894 116.751C55.386 118.11 55.5961 119.615 55.7563 121.047C55.9212 122.523 55.9759 123.994 55.9549 125.479C55.9331 127.005 55.8446 128.527 55.7232 130.048C55.6657 130.77 55.5989 131.489 55.5359 132.21C55.4878 132.76 55.4654 133.306 55.3537 133.837C56.0681 133.662 56.7843 133.495 57.4982 133.333C59.7745 132.818 62.0604 132.34 64.3272 131.783C65.4398 131.51 66.5367 131.182 67.6444 130.891C68.6874 130.617 69.7884 130.285 70.8593 130.163C71.2414 130.119 71.2901 130.643 71.0371 130.821C70.1667 131.434 69.0107 131.862 68.0054 132.205C66.9965 132.549 65.9476 132.796 64.9135 133.051C62.7568 133.584 60.5797 134.019 58.4059 134.472C56.2351 134.925 54.0601 135.374 51.9137 135.933C50.8801 136.202 49.8499 136.472 48.8253 136.773ZM43.7073 109.869C43.1492 110.198 42.6454 109.328 43.2014 109C43.9291 108.572 44.7047 108.25 45.4864 107.936C46.0864 107.695 46.3445 108.668 45.753 108.906C45.0504 109.188 44.3612 109.484 43.7073 109.869ZM41.686 147.231C41.1264 147.556 40.6221 146.687 41.1801 146.363C41.9638 145.907 42.822 145.603 43.6342 145.204C44.2119 144.92 44.7194 145.788 44.14 146.073C43.328 146.471 42.4697 146.775 41.686 147.231ZM40.7772 126.023C41.3183 126.538 42.0405 126.781 42.7214 127.051C43.3151 127.288 43.0547 128.26 42.4549 128.022C41.6065 127.684 40.7424 127.376 40.0684 126.733C39.5995 126.287 40.3096 125.577 40.7772 126.023ZM46.7634 97.22C47.3582 97.4539 47.0977 98.4263 46.4969 98.1894C45.8305 97.9269 45.1423 97.7276 44.476 97.4652C43.8812 97.2313 44.1416 96.2596 44.7425 96.4957C45.4088 96.7575 46.097 96.9575 46.7634 97.22ZM57.3233 85.7796C57.9554 85.6728 58.2245 86.6414 57.5899 86.749C56.8024 86.8828 56.0271 87.0385 55.2802 87.3288C54.6771 87.5627 54.4183 86.5895 55.0137 86.3586C55.7606 86.0691 56.536 85.9127 57.3233 85.7796ZM60.8124 113.634C60.2328 113.348 60.7414 112.482 61.3183 112.766C61.9263 113.065 62.5562 113.298 63.2196 113.439C63.8513 113.574 63.5822 114.543 62.9531 114.409C62.2065 114.249 61.4961 113.971 60.8124 113.634ZM64.1077 97.9442C64.7317 97.7727 64.9956 98.7429 64.3742 98.9136C63.281 99.2145 62.1553 99.3701 61.0539 99.6379C60.4263 99.7905 60.1608 98.8204 60.7874 98.6684C61.8887 98.4007 63.0145 98.2443 64.1077 97.9442ZM78.0878 93.0204C78.7223 93.1378 78.4519 94.1072 77.8213 93.9899C77.1501 93.865 76.4698 93.8635 75.7892 93.8628C75.1431 93.8628 75.1443 92.8572 75.7892 92.8572C76.5624 92.858 77.3256 92.8783 78.0878 93.0204ZM123.682 98.2744C122.044 98.1172 120.404 97.9916 118.761 97.8968C118.684 97.8931 118.61 97.8878 118.533 97.884C118.524 97.8667 118.513 97.8502 118.501 97.8329C117.965 97.0432 117.57 96.2536 117.229 95.3616C116.902 94.5118 116.584 93.6356 116.081 92.8685C115.506 91.9946 114.731 91.311 113.881 90.7191C113.365 91.0666 112.887 91.4742 112.449 91.9059C111.988 92.3601 111.279 91.6487 111.74 91.1944C112.128 90.8109 112.544 90.4566 112.983 90.1363C112.476 89.8272 111.959 89.5369 111.455 89.2481C109.563 88.1659 107.627 87.1649 105.652 86.2503C104.733 85.8239 103.803 85.4456 102.868 85.0621C102.364 84.856 101.866 84.5905 101.362 84.3521C101.399 83.9949 101.292 83.5948 101.019 83.3602C100.817 83.1879 100.66 83.1233 100.42 83.0014C100.366 82.9826 100.334 82.9713 100.319 82.9653C100.33 82.9676 100.362 82.9781 100.416 82.9954C100.544 83.0548 100.554 83.0368 100.447 82.9435C100.44 82.7405 100.041 82.3103 99.9488 82.1005C99.6307 81.38 99.5314 80.6181 99.0614 79.9623C98.4138 79.0583 97.3264 78.7162 96.3126 79.023C96.2073 77.9355 96.1795 76.8007 95.7711 75.8297C95.7598 75.8034 95.7237 75.7921 95.7072 75.8215C95.2815 76.5495 95.2446 77.3602 95.2123 78.1995C95.1807 78.9877 95.2108 79.7939 95.3138 80.5768C95.2484 80.6272 95.1822 80.6753 95.113 80.7212C94.7896 80.9348 94.4414 81.0995 94.0759 81.222C93.3788 81.4529 92.6485 81.5537 91.9183 81.5891C90.0321 81.6793 88.0887 81.4883 86.2341 81.1641C84.3585 80.8355 81.4824 80.3429 79.8132 79.4013C78.7117 78.7808 77.6956 78.0228 76.6655 77.288C77.0389 76.0817 77.1342 74.7844 76.7583 73.7646C76.7131 73.6427 76.5227 73.6202 76.4864 73.7646C76.2508 74.7377 76.1819 75.7154 75.8686 76.6773C75.8636 76.6909 75.8586 76.7066 75.8535 76.7202C75.7558 76.6532 75.6581 76.5878 75.5604 76.5224C75.3348 76.3727 75.0278 76.4848 74.8925 76.6984C72.7283 80.1195 69.3012 80.3151 65.7025 80.9265C61.7639 81.5951 57.8056 82.3163 54.0188 83.6249C50.3975 84.8771 46.9365 86.7001 44.1948 89.4233C43.5742 90.0393 42.9937 90.6966 42.4459 91.3817C42.976 91.4486 43.5016 91.5532 44.0205 91.7171C44.6349 91.9104 44.3708 92.8813 43.754 92.6865C43.087 92.4767 42.4128 92.3722 41.7316 92.321C39.8687 94.8773 38.4161 97.7765 37.1601 100.63C34.7508 106.1 33.1826 111.927 32.4609 117.859C32.8572 117.62 33.2605 117.393 33.6739 117.183C34.2483 116.889 34.7549 117.757 34.1799 118.051C33.5413 118.377 32.9211 118.736 32.3201 119.125C32.0576 121.722 31.9558 124.335 32.0175 126.944C32.164 133.164 33.0011 139.566 34.8945 145.501C35.823 148.414 37.0535 151.302 38.8868 153.764C39.7163 154.879 40.6586 155.885 41.7688 156.723C42.3064 157.13 42.8753 157.493 43.4756 157.8C44.2487 158.197 45.2561 158.328 45.9228 158.89C46.1421 159.075 46.3112 159.319 46.439 159.594C46.3651 160.117 46.3563 160.642 46.4992 161.164C46.5443 161.328 46.6671 161.461 46.8187 161.525C46.8212 161.57 46.8212 161.614 46.8212 161.657C46.8212 161.677 46.8513 161.682 46.855 161.662C46.8613 161.623 46.8676 161.584 46.8738 161.544C46.9227 161.561 46.9741 161.568 47.0267 161.568C48.9301 161.575 50.8359 161.528 52.7418 161.464C52.5945 161.011 52.4348 160.562 52.2816 160.109C52.0735 159.494 53.042 159.232 53.2482 159.841C53.4276 160.371 53.615 160.896 53.7818 161.428C55.8239 161.351 57.8654 161.26 59.9033 161.192C64.2376 161.048 68.5708 161 72.9062 160.908C79.6391 160.765 86.4207 160.472 93.1644 160.758C93.3976 160.262 93.6585 159.777 93.906 159.287C94.1978 158.709 95.0626 159.219 94.7716 159.795C94.5994 160.135 94.4211 160.471 94.2519 160.811C95.6177 160.882 96.9819 160.976 98.3439 161.104C100.667 161.323 102.968 161.711 105.288 161.952C107.648 162.199 109.956 162.155 112.296 161.764C112.717 161.694 112.966 161.438 113.069 161.121C113.072 161.121 113.075 161.118 113.077 161.114C113.197 160.973 113.31 160.857 113.427 160.754C113.566 160.664 113.716 160.587 113.893 160.52C114.222 160.393 114.566 160.317 114.914 160.266C115.298 160.208 115.686 160.202 116.069 160.155C116.393 160.114 116.709 160.052 117.024 159.977C117.592 159.841 118.131 159.663 118.667 159.429C119.135 159.223 119.557 158.929 119.955 158.609C120.779 158.004 121.494 157.233 122.118 156.43C122.481 155.962 122.824 155.475 123.134 154.968C123.676 154.091 124.137 153.18 124.603 152.261C124.772 151.988 124.926 151.709 125.068 151.424C124.156 151.155 123.237 150.936 122.271 150.92C121.626 150.91 121.626 149.904 122.271 149.915C123.379 149.932 124.426 150.192 125.467 150.502C125.518 150.366 125.566 150.23 125.612 150.092C125.736 149.804 125.839 149.509 125.924 149.209C125.974 149.074 126.024 148.938 126.074 148.802C126.187 148.332 126.3 147.861 126.414 147.389C126.64 146.635 126.819 145.87 126.951 145.094C127.062 144.584 127.146 144.069 127.204 143.549C127.38 142.288 127.523 141.03 127.532 139.755C127.517 138.969 127.468 138.185 127.383 137.404C127.346 136.874 127.285 136.346 127.202 135.822C127.094 135.042 126.988 134.27 126.808 133.501C126.674 132.981 126.54 132.46 126.406 131.94C126.072 130.855 125.677 129.791 125.222 128.752C125.197 128.686 125.07 128.543 124.994 128.542C124.936 128.54 124.856 128.593 124.882 128.664C124.885 128.67 124.887 128.677 124.89 128.684C124.864 128.625 124.838 128.565 124.812 128.505C124.79 128.45 124.702 128.34 124.635 128.341C124.631 128.341 124.626 128.341 124.622 128.342C124.639 128.33 124.656 128.313 124.672 128.295C125.122 127.76 125.414 127.057 125.736 126.438C126.003 125.929 126.255 125.39 126.327 124.813C126.391 124.307 126.305 123.808 125.988 123.398C125.627 122.932 124.947 122.713 125.325 122.039C125.754 121.273 126.384 120.607 125.756 119.736C125.436 119.292 124.93 119.049 124.554 118.663C124.122 118.216 123.916 117.619 123.928 117.01C123.954 117.025 123.989 117.017 124.001 116.979C124.365 115.878 124.101 114.669 123.73 113.596C123.527 113.015 123.097 112.855 122.596 112.826C124.762 108.584 126.788 104.273 128.594 99.8627C128.654 99.7183 128.713 99.5739 128.772 99.4295C128.86 99.2129 128.674 98.9249 128.46 98.8775C126.898 98.5338 125.272 98.4248 123.682 98.2744Z" fill="black"/>
<path fill-rule="evenodd" clip-rule="evenodd" d="M106.89 49.6471C106.032 39.1285 103.419 29.8123 91.139 29.415C85.5978 29.4648 79.9407 30.6484 74.8447 32.8382C62.4585 39.0816 58.5286 61.8952 69.4411 71.0786C69.3762 71.1155 69.3607 71.223 69.4373 71.2749C71.6918 72.7993 74.1978 74.0545 76.7077 75.1082C83.3931 77.9495 91.2631 79.1844 98.0813 76.1017C108.487 71.6509 108.643 59.2654 106.89 49.6471Z" fill="#D08B5B"/>
<path fill-rule="evenodd" clip-rule="evenodd" d="M127.372 44.7448C127.799 44.3577 128.118 43.8498 128.28 43.2804C128.427 42.7612 128.437 42.1943 128.281 41.6763C128.114 41.1207 127.752 40.6782 127.833 40.0999C127.842 40.0434 127.853 39.9844 127.871 39.9252C128.184 38.8366 128.952 38.0509 128.678 36.8441C128.6 36.5035 128.454 36.1967 128.25 35.9554C128.272 35.6939 128.292 35.4299 128.308 35.1659C128.76 34.1037 128.744 32.8416 128.263 31.7957C128.203 31.2602 128.114 30.7297 127.99 30.208C128.047 29.7466 127.967 29.2388 127.82 28.8353C127.56 28.1253 127.24 27.4256 126.892 26.7375C126.933 26.5493 126.915 26.3504 126.812 26.1736C126.624 25.8521 126.376 25.5695 126.122 25.2934C125.942 24.9712 125.762 24.6516 125.582 24.3362C125.5 24.1913 125.408 24.0305 125.307 23.8602C125.582 23.3465 125.729 22.8459 125.438 22.2419C125.329 22.015 125.028 21.8477 124.78 21.8625C124.509 21.8788 124.236 21.8909 123.962 21.9014C123.448 21.2781 122.867 20.7185 122.243 20.3965C121.611 19.8585 120.971 19.3305 120.349 18.7912C120.172 18.6379 119.994 18.4845 119.818 18.3311C119.817 18.3274 119.815 18.3223 119.815 18.3186C119.685 17.8421 119.538 17.372 119.392 16.8993C119.3 16.6064 119.273 16.2997 118.989 16.1401C118.396 15.8069 117.485 15.7541 116.805 15.6975C116.737 15.6372 116.67 15.5781 116.602 15.5178C116.911 14.6906 116.856 13.812 116.467 12.9835C116.334 12.7019 115.875 12.575 115.622 12.761C115.039 13.1909 114.347 13.343 113.664 13.2802C112.658 12.5033 108.603 8.99024 107.976 8.61948C107.969 8.60609 107.962 8.59278 107.955 8.57962C107.602 8.01414 107.174 7.56012 106.693 7.19604C106.625 7.124 106.556 7.05187 106.487 6.97967C106.547 6.54867 106.707 6.13247 106.963 5.78419C106.99 5.74403 107.021 5.705 107.053 5.66732C107.5 5.13178 106.954 4.44296 106.329 4.72325C106.283 4.74333 106.238 4.76349 106.193 4.78485C105.713 5.00031 105.181 5.23451 104.627 5.43215C104.424 5.35582 104.218 5.2867 104.03 5.21052L102.012 4.39505C101.679 4.26081 101.329 4.14702 101.007 3.98924C100.895 3.24018 100.149 2.74886 99.3728 2.7745C99.4179 2.63071 99.4848 2.49105 99.5788 2.35869C99.6059 2.31973 99.636 2.28197 99.6676 2.24557C100.066 1.77914 99.5337 0.91427 98.9636 1.32911C98.9238 1.35806 98.8824 1.38694 98.8426 1.4159C98.6839 1.52765 98.5214 1.63249 98.3575 1.73402C98.095 1.61888 97.7994 1.59263 97.4903 1.71447C96.8052 1.98408 96.1735 2.25821 95.5711 2.68087C95.5463 2.69809 95.5207 2.71253 95.4959 2.72878C95.1965 2.36523 94.7212 2.12209 94.2933 2.12472C94.285 2.12472 94.2783 2.12464 94.27 2.12449C93.9504 1.63437 93.3638 1.34949 92.7975 1.41875C92.8358 0.715424 92.1349 0.0877496 91.4971 0.0114902C90.7526 -0.0775317 90.081 0.35729 89.8576 1.08792C89.7952 1.29128 89.7328 1.49479 89.6704 1.69837C89.092 1.40484 88.4821 1.1799 87.8444 1.06769C86.3921 0.811989 84.9722 1.08424 83.5728 1.48952C83.433 1.52999 83.2933 1.57165 83.1537 1.61309C82.9541 1.3807 82.7669 1.14275 82.588 0.920587C82.2791 0.537184 81.5376 0.843876 81.5876 1.3367C81.6224 1.67671 81.485 1.92136 81.2638 2.09524C81.0208 2.13089 80.786 2.14172 80.4319 2.13457C79.9638 2.12502 79.7509 2.11028 79.2614 1.91843C79.0334 1.82923 78.7494 1.59451 78.6164 1.38378C78.1069 0.575915 76.8126 0.358268 76.1961 1.12861C75.5474 0.843124 74.7284 1.23683 74.3683 1.792C74.1799 2.08223 73.7867 2.24452 73.2918 2.38411C72.9203 2.48864 72.5404 2.56783 72.1588 2.6371C71.9887 2.40516 71.6306 2.24971 71.3679 2.4442C71.19 2.57626 71.0171 2.71193 70.8467 2.85099C69.5326 3.03299 68.2252 3.03953 66.9721 2.52437C65.9113 2.08817 64.9372 3.27951 65.1123 4.27961C64.805 4.4404 64.4717 4.54742 64.1682 4.71581C63.5061 5.08364 62.9624 5.66506 62.6311 6.34817C62.5717 6.47045 62.518 6.59469 62.4669 6.71946C62.2194 6.92199 61.9747 7.12994 61.7359 7.34931C61.3382 7.14438 60.9419 6.93951 60.5442 6.73458C60.2466 6.58123 59.7452 6.6881 59.6864 7.08534C59.5901 7.73896 59.3563 8.28082 59.0224 8.73462C57.9371 9.30784 56.893 9.95146 55.8938 10.6667C54.7448 11.0288 53.523 11.24 52.519 11.4776C52.1751 11.5592 51.9875 12.0105 52.1814 12.311C52.3864 12.629 52.5915 12.9471 52.7953 13.2651C52.2238 13.8258 51.6875 14.4116 51.181 15.0174C49.7718 16.7019 48.5926 18.5486 47.5373 20.5046C47.1197 20.6743 46.702 20.8428 46.2843 21.0125C45.8818 21.1759 45.7004 21.6461 46.0268 21.9917C46.1818 22.1564 46.3206 22.3299 46.4394 22.5121C45.848 23.4965 45.1515 24.394 44.1774 24.9823C43.881 25.1608 43.6584 25.4411 43.5397 25.7592C43.4384 25.8271 43.3383 25.9 43.2396 25.9742C42.9645 26.1828 42.7981 26.6379 43.1208 26.9082C43.3471 27.0993 43.5597 27.3255 43.7397 27.5757C43.7785 27.7177 43.8185 27.8611 43.8585 28.0031C42.9532 28.8403 42.2005 29.8133 41.6353 30.9044C41.5015 30.8831 41.3639 30.8969 41.2526 30.9799C40.2423 31.7304 40.2123 32.9258 40.6187 33.9943C40.3736 35.6046 40.5311 37.2552 41.0038 38.8153C40.3824 39.4387 40.0085 40.3388 39.8559 41.2062C39.587 42.7298 39.5683 45.073 39.4983 46.628C38.8205 47.2855 38.3379 48.1365 38.0691 49.0516C37.8427 49.1648 37.6164 49.2779 37.3901 49.391C37.1888 49.4916 37.0412 49.7568 37.0537 49.9806C37.1112 51.0629 37.5551 51.9177 38.1441 52.6921C38.3529 53.2893 38.6618 53.8399 39.0669 54.3678C39.347 54.7299 39.6208 55.0768 39.8622 55.4678C39.8872 55.5068 39.9022 55.5432 39.9134 55.5683C39.8184 55.6714 39.7396 55.8424 39.6708 55.9643C39.0932 56.9876 39.0844 58.1868 39.9047 59.0781C39.5958 59.3321 39.5858 59.8449 39.8584 60.1592C41.6327 62.1969 43.1121 64.6746 45.5741 65.7569C45.5854 65.7758 45.5954 65.7947 45.6041 65.8135C45.1052 67.0203 45.0377 67.6476 45.4453 68.8949C45.4478 68.9062 45.4516 68.916 45.4553 68.9273C45.6729 69.5808 46.073 70.6284 46.7945 70.8315C47.0221 70.8962 47.2459 70.9248 47.4673 70.9233C48.04 71.4783 48.6114 72.0333 49.1829 72.5891C49.2329 72.8643 49.2641 73.1426 49.2741 73.4224C49.2903 73.8917 49.7292 74.2714 50.2019 74.1331C50.3683 74.0842 51.2886 73.1847 51.4573 73.19C51.5424 73.2757 51.6249 73.3607 51.7075 73.4479C52.0113 73.7683 52.4327 74.2737 52.4677 74.6091C52.5352 75.2416 52.9479 75.9659 53.6143 76.0937C53.8644 76.3494 54.2646 76.4261 54.5709 76.0929C54.5909 76.0711 54.6109 76.0501 54.6322 76.0313C54.6647 76.0275 54.696 76.0238 54.7284 76.02C54.876 76.4622 55.0236 76.9044 55.1724 77.3459C55.4637 78.216 56.5766 78.7756 57.3668 78.2672C57.4944 78.3439 57.6195 78.4259 57.7445 78.5078C57.9346 78.6297 58.1271 78.7538 58.3247 78.8711C58.336 78.9034 58.3472 78.9365 58.3572 78.9673C58.4848 79.3584 59.0149 79.5682 59.3413 79.3434C59.4426 79.3765 59.5464 79.4028 59.6514 79.4239C60.2028 79.5336 60.7581 79.5028 61.2907 79.3186C61.6721 79.1877 62.036 78.9373 62.4461 78.9034C62.4717 78.9012 62.4981 78.9034 62.5241 78.9027C62.8587 79.5916 63.6233 80.1857 64.226 80.3872C65.0152 80.6512 65.823 80.5572 66.5417 80.2331C66.7357 80.6234 66.9793 80.9919 67.2703 81.3333C67.4316 81.5221 67.7229 81.4815 67.8892 81.3333C68.2051 81.0521 68.5189 80.7693 68.8323 80.4858C69.0591 80.3978 69.2881 80.2925 69.5269 80.1947C70.2739 79.8879 71.0928 79.7608 71.7836 79.3178C72.1116 79.1072 72.4201 78.8387 72.6742 78.5274C73.1528 78.2499 73.5926 77.9032 73.9888 77.5068C74.1863 77.5083 74.3927 77.4617 74.5927 77.3594C75.4293 76.9323 75.8694 76.0629 75.9082 75.1724C76.5859 73.5698 76.986 71.8603 77.0961 70.1103C77.1311 69.5357 77.1374 68.9559 77.0936 68.382C77.0636 67.9767 76.9623 67.7067 76.8098 67.3409C76.7585 67.2214 76.7122 67.1121 76.676 66.9914C76.6847 66.6042 76.6897 66.2171 76.6947 65.8311C76.7985 65.5055 76.9836 65.2026 77.2411 64.9474C77.64 64.5527 77.8226 63.7331 77.46 63.2453C77.2236 62.9298 76.9885 62.6143 76.7522 62.2987C76.8185 60.9449 77.1411 58.7902 76.4258 58.564C76.4546 58.3628 76.5159 58.1642 76.5509 57.9643C76.7185 57.0039 76.6184 56.1453 76.1107 55.3056C76.0044 55.1309 75.9144 54.9762 75.8406 54.8254C75.7944 54.5488 75.7481 54.2723 75.7019 53.9957C75.6306 53.5696 75.5606 53.1396 75.5006 52.7072C75.4693 52.1566 75.4405 51.606 75.4093 51.0541C75.3805 50.5463 75.348 50.0384 75.3142 49.5293C75.328 49.3018 75.348 49.0743 75.3768 48.8468C75.5481 47.4903 76.0995 46.9888 77.0549 46.0459C77.2049 46.0221 77.3536 45.9957 77.5 45.9655C78.1814 45.8235 78.8942 45.6035 79.5957 45.6827C80.3572 45.7681 81.0387 46.0988 81.779 45.6764C81.9965 45.5507 82.4754 45.2037 82.5167 44.9284C82.5192 44.9108 82.5229 44.8957 82.5279 44.8844C82.5792 44.8769 82.6455 44.8706 82.6868 44.8693C83.2744 44.8492 83.8358 45.0818 84.4285 45.0177C85.1302 44.9423 85.7581 44.6293 86.1703 44.1654C86.6997 44.2961 87.2397 44.3552 87.7887 44.2823C88.249 44.2219 88.6611 44.0711 89.0687 43.8473C89.365 43.6864 89.2718 43.6399 89.5944 43.7706C90.3284 44.0698 90.9917 44.4646 91.8183 44.2596C92.2477 44.154 92.6177 43.9215 92.9291 43.6085C93.0028 43.5356 93.1276 43.4262 93.2118 43.3231C93.6044 43.523 94.5919 43.9743 94.7543 44.0145C95.2146 44.1276 95.7027 44.11 96.1502 43.9592C96.4788 43.8486 96.8819 43.5469 97.1707 43.4853C97.5445 43.4048 98.3748 43.9278 98.8207 44.1076C99.6036 44.423 100.432 44.501 101.226 44.1755C101.498 44.0636 102.028 43.6173 102.232 43.621C102.564 44.0321 103.489 46.281 103.766 47.1019C104.891 50.4206 105.182 60.7827 104.663 63.4264C104.643 63.5043 104.621 63.5809 104.6 63.6589C103.963 65.9581 103.299 68.2963 102.232 70.4382C101.226 72.4575 99.8338 74.2752 97.837 75.3777C95.7659 76.5216 93.3352 76.8217 91.0068 76.6668C89.5079 76.569 88.0339 76.2659 86.5831 75.8861C85.8251 75.6891 85.0737 75.4695 84.3262 75.2401C83.9996 75.1408 83.6683 75.0483 83.3482 74.9325C82.783 74.7272 82.4866 74.7114 81.9452 74.9739C81.4526 75.213 81.3263 75.9177 81.5826 76.3614C82.0003 77.0857 82.7655 77.1361 83.5045 77.3474C84.257 77.5625 85.0128 77.7686 85.7724 77.9528C87.2292 78.3048 88.71 78.5755 90.2028 78.6996C92.8764 78.9252 95.6312 78.5778 98.0642 77.4053C98.3394 77.2714 98.6049 77.1301 98.8614 76.9766C98.7658 77.1097 98.6696 77.2429 98.5718 77.3752C98.3018 77.7407 98.5019 78.3627 98.8809 78.5627C99.0012 78.6259 99.1208 78.6861 99.2427 78.7447C99.2584 78.7838 99.2765 78.8229 99.2961 78.8621C99.6428 79.5607 100.368 79.9736 101.107 80.1518C101.985 80.3632 102.968 80.2135 103.86 80.1872C104.688 80.1616 105.516 80.1368 106.342 80.1112C106.538 80.1067 106.732 80.1 106.927 80.0939C107.91 80.0639 108.892 80.0345 109.874 80.0044C110.748 79.9781 110.708 80.0466 111.529 79.6938C111.895 79.5359 112.195 79.3118 112.448 79.014C112.605 78.944 112.758 78.8636 112.905 78.7718C113.375 78.477 113.792 78.0829 114.177 77.6475C114.831 77.855 115.748 77.6625 115.875 76.8367C116.081 75.5154 117.789 74.9513 118.587 73.9962C119.23 73.2253 119.691 72.2161 119.666 71.2466C121.29 70.457 122.172 68.3768 122.379 66.6117C122.475 65.7934 122.46 64.9173 122.599 64.085C122.66 64.0184 122.715 63.948 122.762 63.8726C123.17 63.2102 123.525 62.5275 123.837 61.8286C124.262 61.5206 124.774 61.3308 125.308 61.2994C126.624 61.2227 126.872 59.4388 125.618 59.009C125.612 59.0064 125.606 59.0052 125.6 59.0026C125.94 58.1479 125.912 57.1359 125.499 56.3263C125.516 56.2384 125.533 56.1516 125.549 56.0637C126.253 55.3031 126.657 54.2459 126.612 53.2163C126.933 52.9888 127.293 52.8129 127.687 52.7034C128.296 52.535 128.299 51.7883 127.85 51.4539C127.668 51.3194 127.518 51.1623 127.393 50.9888C127.705 50.0485 127.582 48.9612 126.946 48.1893C127.35 47.6689 127.753 47.1484 128.157 46.628C128.425 46.2836 128.566 45.699 128.157 45.3721C127.896 45.1622 127.635 44.9535 127.372 44.7448Z" fill="black"/>
<path fill-rule="evenodd" clip-rule="evenodd" d="M97.9792 64.279C98.4094 63.5179 99.6916 63.6417 99.8879 64.5293C100.286 66.3286 98.1469 67.9902 96.5224 68.0315C94.9085 68.0729 93.0968 66.6945 93.3307 64.9534C93.3886 64.5228 93.9616 64.575 94.1572 64.845L94.2331 64.9487C94.7641 65.6642 95.4643 66.4048 96.4502 66.2303C96.8586 66.1582 97.2294 65.9023 97.476 65.5728C97.7739 65.1752 97.7415 64.7004 97.9792 64.279ZM87.7142 51.1149C87.9331 51.0544 88.1534 51.0778 88.3475 51.1605C88.7799 51.2401 89.1417 51.6022 89.2688 52.0155C89.2785 52.0512 89.2898 52.0866 89.3026 52.1215L89.3214 52.1737L89.2695 52.0412C89.2936 52.1717 89.3996 52.3089 89.438 52.4399C89.4846 52.6009 89.4959 52.7838 89.4801 52.9611C89.6177 52.9624 89.7553 52.9671 89.893 52.979L90.0253 52.9909C90.7676 53.0601 91.5821 53.1871 92.0221 53.8304C92.2695 54.192 92.0379 54.8429 91.5836 54.9125C90.8849 55.0198 90.2825 54.6318 89.5861 54.5542C88.9281 54.4806 88.2392 54.5227 87.5894 54.642C86.2477 54.8881 85.0143 55.4336 83.7072 55.7759L83.5292 55.8212L83.5295 55.8204C83.3054 55.8747 83.0511 55.5622 83.2728 55.3794C84.3202 54.5162 85.6611 53.8166 86.9825 53.3906C86.7899 53.0835 86.7305 52.679 86.8621 52.3492C86.8825 52.2809 86.9073 52.2144 86.9343 52.1482L86.99 52.012C86.9953 51.9477 87.0073 51.8842 87.0253 51.822L87.0284 51.803L87.0299 51.8042C87.1284 51.4835 87.3848 51.2059 87.7142 51.1149ZM101.078 51.1644C101.364 50.8769 101.767 50.9194 102.065 51.1457L102.105 51.1769C102.387 51.3025 102.62 51.5768 102.773 51.8312C102.932 52.0953 103.038 52.3643 103.042 52.655C103.735 52.6573 104.4 52.866 104.909 53.4276C105.073 53.6089 105.185 53.8885 105.095 54.1342L105.041 54.2804C104.87 54.7446 104.102 55.0118 103.84 54.4659L103.828 54.4393C103.55 53.7912 102.486 53.8592 101.919 53.9254C101.524 53.9718 101.134 54.0703 100.754 54.1805C100.619 54.2193 100.486 54.2615 100.353 54.3046L100.22 54.3478C100.149 54.3708 99.7796 54.5721 100.01 54.5245C100.071 54.5116 100.117 54.6018 100.055 54.6321C99.7804 54.7635 99.4886 54.502 99.5066 54.2068C99.5382 53.6944 100.35 53.4135 100.74 53.2368L100.763 53.2262C100.913 53.1567 101.069 53.0903 101.231 53.0285C101.14 52.8928 101.065 52.7419 101.002 52.58C100.943 52.4271 100.904 52.2786 100.882 52.116C100.861 52.0365 100.861 51.9571 100.882 51.8776L100.886 51.8548C100.875 51.8022 100.869 51.7479 100.87 51.6932L100.868 51.672H100.87C100.878 51.4805 100.954 51.2887 101.078 51.1644ZM96.4999 56.6207C97.6009 56.9618 99.4164 57.8911 98.8425 59.3256C98.0423 60.643 95.9185 59.6748 94.8889 59.2492C93.9647 58.942 93.4833 60.2419 94.3768 60.6338C101.765 63.5659 101.738 55.8274 96.7683 55.941C96.2208 55.9535 96.2035 56.5073 96.4999 56.6207ZM86.7253 46.5305L86.9133 46.4755C87.8887 46.192 88.8845 45.7025 89.7508 46.4663C90.0908 46.7662 90.1607 47.3895 89.9178 47.7636C89.3628 48.6161 88.5408 48.4858 87.6458 48.5585C86.9637 48.6138 86.2921 48.8147 85.6558 49.0657C85.1362 49.271 84.6541 49.56 84.1984 49.8823C83.7511 50.1993 83.4454 50.6946 82.9866 50.9799C82.8184 51.0844 82.6242 50.9768 82.5638 50.8073C82.3498 50.2057 82.7114 49.4564 83.0174 48.9439C83.391 48.3186 83.9584 47.8072 84.5684 47.4203C85.2369 46.9966 85.9755 46.7519 86.7253 46.5305ZM100.94 45.8833C102.589 45.8828 104.175 46.8028 105.097 48.1515C105.411 48.6098 105.182 49.2886 104.732 49.5524C104.227 49.8486 103.687 49.6354 103.355 49.211L103.335 49.1852C102.806 48.4786 102.125 47.9222 101.316 47.5598C100.922 47.383 100.486 47.2395 100.059 47.1668L99.9218 47.1431C99.7285 47.1106 99.5044 47.0795 99.3291 47.1099C99.2359 47.1223 99.1494 47.1533 99.0704 47.2005C99.1088 47.284 99.0103 47.3846 98.9193 47.3346C98.5094 47.1088 98.5598 46.7061 98.8982 46.3931C99.3773 45.9502 100.322 45.8834 100.94 45.8833Z" fill="black"/>
<path fill-rule="evenodd" clip-rule="evenodd" d="M97.276 61.5119C95.8825 60.8823 93.3796 61.4317 92.4711 61.6502C90.3593 62.1583 88.2347 63.2564 87.5782 64.9767C86.8381 66.9155 88.3144 67.5258 88.5318 67.4262C89.9938 67.5295 91.7348 66.6074 93.2668 66.3694C94.5107 66.1746 95.8231 66.0045 96.988 65.3415C97.8393 65.811 99.7609 66.0648 101.312 66.4754C102.632 66.8249 103.205 67.5827 104.429 67.4216C105.897 67.2285 105.296 64.132 103.66 62.8775C101.87 61.5047 98.8426 60.9479 97.276 61.5119ZM100.035 74.7525C98.8155 75.0504 98.7336 72.37 98.5974 71.4224C98.4906 70.6831 97.889 68.7744 96.363 68.8571C94.8371 68.9391 94.264 70.538 94.3407 71.5322C94.3911 72.1767 94.9838 75.4429 93.0931 75.8566C91.8875 75.8521 90.4932 75.7708 89.2259 75.5362C87.7346 75.197 85.7943 74.0103 85.2821 76.3477C85.0979 77.1885 91.6686 79.6868 94.5844 79.9132C97.5415 80.5141 101.001 79.5898 103.107 77.3208C103.585 76.8042 104.934 74.6615 105.031 74.1366C105.233 73.0333 104.765 72.3234 103.405 72.7122C102.443 73.2274 100.819 74.5608 100.035 74.7525Z" fill="black"/>
<path fill-rule="evenodd" clip-rule="evenodd" d="M108.352 57.38C106.831 58.957 104.291 59.4095 102.267 58.5638C97.0699 56.3854 99.6134 49.5909 103.622 47.7662C104.123 47.641 104.791 47.344 105.401 47.2766C105.456 47.2495 105.577 47.328 105.722 47.2538C110.142 47.7488 111.148 54.6315 108.352 57.38ZM91.5881 57.7835C89.8817 60.0539 86.7095 60.7544 84.1179 59.6989C78.9976 57.676 80.8137 51.6509 84.3172 49.2889C91.7167 46.4994 94.7731 53.5973 91.5881 57.7835ZM80.4886 52.7529C80.4839 52.7507 80.4791 52.7496 80.4742 52.7473C80.5013 52.7353 80.5283 52.7234 80.5553 52.7112C80.5465 52.7342 80.537 52.757 80.5285 52.7799C80.5152 52.7708 80.5035 52.7601 80.4886 52.7529ZM111.874 50.2988C111.457 50.2996 110.853 50.3685 110.508 50.6593C109.655 47.7739 106.507 45.1035 103.769 47.0507C101.613 47.7463 100.014 49.2889 99.1043 51.3397C97.4648 50.3614 94.8867 50.7791 93.4653 52.0728C92.5342 48.9865 90.2427 47.9058 87.5157 47.7463C84.539 47.2572 81.5718 50.1573 80.646 52.4839C79.8762 52.3961 78.7261 52.1503 78.0019 52.6269C73.3021 51.3904 65.0851 50.7087 64.1296 51.3957C63.4486 51.6578 63.075 53.2701 64.0261 53.3572C64.8549 53.2391 63.9293 52.1757 64.7648 52.0597C69.216 51.7829 73.5372 52.6822 77.9414 53.0596C78.3346 53.5902 79.6051 53.7677 80.2829 53.5545C79.2154 57.5012 81.5198 60.1864 84.973 60.9906C90.3194 62.2226 94.9709 57.4246 93.5728 52.4341C95.192 51.6257 97.0549 51.6604 98.8192 52.0862C95.8711 62.9713 113.346 62.4829 110.617 51.0323C112.433 51.9386 112.827 50.4817 111.874 50.2988Z" fill="black"/>
<rect y="72" width="159" height="96" fill="url(#paint0_linear_230_62)"/>
<defs>
<linearGradient id="paint0_linear_230_62" x1="79.5" y1="72" x2="79.5" y2="168" gradientUnits="userSpaceOnUse">
<stop offset="0.323425" stop-color="#F6F6F6" stop-opacity="0"/>
<stop offset="1" stop-color="#F6F6F6"/>
</linearGradient>
</defs>
</svg>
