<svg width="159" height="155" viewBox="0 0 159 155" fill="none" xmlns="http://www.w3.org/2000/svg">
<path fill-rule="evenodd" clip-rule="evenodd" d="M145.989 83.7157C144.017 83.9086 142.044 84.1015 140.071 84.2944C130.623 85.0128 121.178 86.5145 111.803 87.4157C111.569 87.0371 111.112 87.0997 110.835 87.3624C109.899 87.2811 108.851 86.5684 108.004 87.3092C107.975 87.3056 107.948 87.3012 107.92 87.2984C106.411 84.4139 105.368 81.338 104.356 78.2578C103.71 76.3638 102.841 74.5304 101.234 73.2591C98.4928 71.3637 92.2107 67.5205 88.9915 67.6817C88.9382 67.108 88.6697 66.5163 88.2285 66.134C89.201 64.4834 85.3131 63.4065 85.0388 63.5973C85.2145 58.0818 82.6093 53.2926 76.8649 52.1941C71.7187 51.1259 64.3985 50.9466 61.6307 56.3023C61.3262 56.2685 58.2165 56.2526 57.9156 56.2857C57.4477 55.6955 52.3101 61.2873 54.4156 63.2345C35.5887 71.5279 24.8838 70.5381 19.6728 93.8548C18.9684 96.0453 18.9171 98.4417 18.1732 100.583C15.5266 106.738 13.38 113.291 12.8458 119.988C11.5555 120.316 11.4071 122.582 12.9016 122.91C13.4725 123.035 13.9499 123.207 14.3662 123.531C14.0408 129.019 15.3735 141.554 16.2132 141.516C17.9255 146.942 25.5629 148.474 30.9701 146.567C30.0379 148.314 30.9701 149.411 30.9701 150.344C50.4262 151.078 71.6993 150.655 91.1496 151.661C93.6382 151.626 96.2548 152.269 98.7088 151.899C100.205 151.541 100.208 149.198 98.6901 148.908L105.324 147.474C105.175 147.417 108.057 145.508 110.236 141.94C112.264 137.949 110.884 133.131 111.803 128.79C118.979 128.205 126.274 127.956 133.372 126.745C134.34 129.628 138.529 126.18 139.861 124.793C139.859 124.79 139.858 124.788 139.855 124.786C140.5 124.61 141.017 124.009 141.035 123.297C141.486 122.654 141.581 121.748 141.148 121.126C143.134 109.711 146.163 98.0558 147.257 86.5332C147.644 86.4482 148.009 86.2791 148.317 86.0192L148.292 85.994C148.816 85.4131 148.918 84.4096 148.045 83.9158C147.341 83.517 146.753 83.6408 145.989 83.7157Z" fill="#EDB98A"/>
<path fill-rule="evenodd" clip-rule="evenodd" d="M70.9597 126.44L72.4793 127.403L84.9133 131.393L92.5113 132.355L98.7287 131.393V141.986L99.9719 151.893C99.4197 152.901 94.1691 152.901 84.2222 151.893C77.8811 151.249 54.7062 150.937 49.4297 150.8L49.1309 150.792C42.9301 150.614 36.8057 150.614 30.756 150.792V147.077L48.0253 138.547L63.4992 129.879L70.9597 126.44ZM62.1487 55.437L63.2911 56.2857L60.7976 60.3651L72.9436 70.1486V77.9633L76.7883 81.5856L78.9868 77.9633L82.0836 73.8623L84.2841 67.2131L83.5348 62.8335L85.0422 62.6917C85.0494 62.9911 85.0479 63.2935 85.0386 63.5972C85.3128 63.4065 89.2007 64.4834 88.2282 66.134C88.6695 66.5162 88.938 67.108 88.9913 67.6817C92.2104 67.5204 98.4926 71.3637 101.234 73.2591C102.84 74.5303 103.71 76.3638 104.356 78.2577L104.508 78.7199L104.665 79.1935L104.823 79.6679C105.698 82.2731 106.641 84.8544 107.92 87.2983C107.948 87.3012 107.975 87.3055 108.003 87.3091C108.851 86.5684 109.899 87.2803 110.834 87.3624C111.106 87.1054 111.548 87.0399 111.785 87.3898L111.803 87.4157L100.146 89.7019L92.4559 116.565L85.7591 111.151L82.1649 111.683L72.6722 115.093L61.6319 117.949L36.4285 124.869H33.2186L14.542 120.378L12.8589 119.824C13.4147 113.184 15.5479 106.688 18.173 100.583C18.9168 98.4416 18.9681 96.0452 19.6726 93.8547C24.8836 70.538 35.5884 71.5278 54.4154 63.2344C52.3098 61.2872 57.4474 55.6954 57.9153 56.2857L57.9448 56.2836L58.0089 56.28L58.0909 56.2771C58.8252 56.2555 61.3576 56.272 61.6304 56.3023C61.7888 55.9963 61.9623 55.7077 62.1487 55.437Z" fill="#FF734F"/>
<path fill-rule="evenodd" clip-rule="evenodd" d="M147.852 84.5312L147.505 86.4583C147.422 86.4849 147.339 86.508 147.253 86.5267C147.144 87.6756 147.016 88.8252 146.872 89.9762L144.719 101.924C144.348 104.038 143.995 106.156 143.645 108.275L143.182 110.551L142.894 111.965C142.275 115.029 141.672 118.083 141.144 121.119C141.224 121.234 141.286 121.357 141.331 121.488L141.29 121.659L141.262 121.773L141.233 121.886C140.816 123.482 140.091 125.029 138.381 125.499C137.091 125.854 135.677 125.885 134.345 126.025L134.197 126.041L110.896 128.651C108.08 128.966 105.266 129.291 102.453 129.619L100.013 129.904C96.6131 130.296 93.1931 130.605 89.8436 131.314C89.7205 131.34 89.6183 131.389 89.5348 131.454C90.21 128.911 90.8557 126.371 91.441 123.803C92.0996 120.911 92.7245 118.014 93.4292 115.134C94.8487 109.331 96.4396 103.566 98.1816 97.8499C98.5473 96.6507 98.9209 95.4528 99.3032 94.2586L99.5717 93.4236L99.7776 92.7584C100.097 91.7442 100.492 90.7011 101.429 90.1418C102.525 89.4867 104.02 89.378 105.263 89.152L106.105 88.9943C107.364 88.7604 108.625 88.5351 109.888 88.3191C115.933 87.2832 122.012 86.4525 128.114 85.8291C134.464 85.1798 140.835 84.7573 147.214 84.5514L147.852 84.5312ZM90.0178 124.368L90.0776 124.373L89.2073 131.302C89.0676 131.205 88.8912 131.145 88.6753 131.146C85.8204 131.155 83.0835 130.245 80.4366 129.247L80.0335 129.094L78.9098 128.663C77.7674 128.228 76.6192 127.801 75.4488 127.448L74.9758 127.306L74.7354 127.235C73.85 126.977 72.9185 126.743 71.9971 126.685L71.8711 126.679L72.1396 126.538C72.1785 126.517 72.213 126.494 72.244 126.47C72.7507 126.507 73.259 126.497 73.7938 126.401C74.8002 126.221 75.7784 125.872 76.6768 125.387L77.0778 125.17L77.2419 125.083L77.3506 125.028L77.4586 124.973C78.2303 124.59 78.9674 124.351 79.9421 124.554C81.0477 124.786 82.0167 125.38 83.0137 125.881L83.19 125.969L83.3095 126.026L83.4305 126.083L83.5535 126.139C84.9011 126.743 87.0463 127.395 87.5638 125.57C87.7712 124.836 87.6085 124.15 87.2485 123.548C87.9195 123.49 89.1194 124.278 90.0178 124.368Z" fill="white"/>
<path fill-rule="evenodd" clip-rule="evenodd" d="M61.9891 55.0586C62.5758 53.5916 64.5568 54.1624 64.3365 55.7036C64.2041 56.6265 63.6966 57.6019 63.2402 58.411C62.8687 59.0696 62.4455 59.7125 61.871 60.2056C62.8932 61.1558 63.9543 62.0707 65.0427 62.9396C66.2297 63.8876 67.4787 64.7622 68.7686 65.5649C69.9002 66.2696 71.083 66.8937 72.1498 67.6971C73.1417 68.4443 74.0451 69.3433 74.5051 70.5167C74.9946 71.7656 74.7823 73.0556 74.4216 74.3046L74.3799 74.4457C74.0113 75.6824 73.3735 77.1732 74.2582 78.3386C74.7081 78.9318 75.3632 79.3522 75.9283 79.8265C76.4307 80.2484 76.9022 80.7062 77.3341 81.1986C78.2771 82.2726 79.0445 83.4805 79.5283 84.8259L79.5714 84.9483C79.9861 86.1396 80.2891 87.5995 79.7291 88.7692C79.5678 89.104 79.0496 88.9953 78.9596 88.6685C78.7559 87.9292 78.7666 87.1546 78.5953 86.4045C78.4182 85.6242 78.1224 84.8835 77.7358 84.1831C76.9893 82.8276 75.9772 81.6701 74.7816 80.6918L74.4238 80.4017C73.4916 79.6394 72.6342 78.831 72.4449 77.5698C72.2426 76.2201 72.7854 74.9344 73.1345 73.6574C73.3778 72.767 73.4577 71.9139 73.1943 71.1092C72.8732 71.631 72.4348 72.127 72.0886 72.569C71.3983 73.4494 70.7014 74.3247 70.0061 75.2022C69.2934 76.1013 68.5988 77.0148 67.9365 77.9513C67.6406 78.371 67.3476 78.7928 67.0561 79.2147C66.8366 79.5321 66.5299 79.8489 66.2909 80.1728C66.3492 80.3456 66.3442 80.545 66.2391 80.6868C64.97 82.3943 63.1646 78.8317 62.6938 77.9319C61.735 76.0984 61.0216 74.1512 60.0599 72.3185C59.0629 70.4188 57.9277 68.5695 56.6629 66.8354C55.8977 65.7858 55.0396 64.8011 54.3399 63.7184C52.6908 65.2078 50.5204 66.2062 48.5272 67.1111C46.3374 68.1059 44.0619 68.9179 41.816 69.781L41.153 70.0373C37.2838 71.5411 33.3203 73.1931 30.1047 75.8645C26.3256 79.003 24.0899 83.3776 22.4256 87.9076C20.5096 93.1229 18.9246 98.4786 17.447 103.831C16.6909 106.57 15.9734 109.321 15.299 112.08C14.7046 114.512 14.2119 116.967 13.524 119.374C14.9193 119.325 16.5107 119.862 17.7021 120.018C23.1314 120.726 28.4879 121.854 33.614 123.807C34.2467 124.048 34.4303 124.678 34.2921 125.189C34.6571 125.086 35.022 124.982 35.387 124.88C34.9875 124.269 35.1782 123.178 35.2099 122.501L35.2114 122.455C35.2437 121.553 35.3424 120.651 35.4057 119.751C35.5274 118.036 35.685 116.332 35.8952 114.627L35.9485 114.2C36.1867 112.344 36.3624 110.478 36.6215 108.626L36.6525 108.413C36.528 107.94 36.3833 107.471 36.2314 107.005C35.8254 105.763 35.2538 104.594 34.7521 103.392C34.6931 103.25 34.8953 103.169 34.9904 103.254C35.8391 104.014 36.5136 104.98 37.0556 105.989C37.065 105.941 37.0736 105.894 37.083 105.846L37.1449 105.543C37.2975 104.804 37.4832 104.026 37.9381 103.427C37.9864 103.363 38.0828 103.35 38.1282 103.427C38.5644 104.161 38.6126 105.091 38.6803 105.926C38.7559 106.871 38.7653 107.829 38.7523 108.777C38.7257 110.629 38.5947 112.486 38.4903 114.335C38.3881 116.153 38.1865 117.947 37.9273 119.747L37.8777 120.084C37.751 120.94 37.6473 121.808 37.4803 122.658L37.4328 122.889C37.3435 123.311 37.2888 123.907 37.111 124.4C41.6886 123.128 46.274 121.886 50.8681 120.665C54.1881 119.783 57.5123 118.914 60.8344 118.039C61.0101 117.724 61.2282 117.43 61.5003 117.167C62.398 116.302 63.5879 115.916 64.6784 116.582C64.7677 116.636 64.7749 116.775 64.6784 116.827C64.4697 116.941 64.2602 117.058 64.0543 117.18L66.0498 116.641C67.5406 116.239 69.0494 115.736 70.5755 115.456C73.3865 114.074 76.4099 113.074 79.3713 112.086L79.7205 111.968C81.2365 111.453 82.805 110.877 84.3714 110.592C85.5181 110.383 86.8643 110.635 87.3257 111.805C87.9095 112.188 88.4587 112.638 88.9885 113.081C89.3722 113.401 89.7393 113.742 90.1129 114.073L90.182 114.133C90.4873 114.397 90.7291 114.574 90.804 114.993C90.8429 115.211 90.7047 115.504 90.4354 115.475C89.6134 115.388 88.9446 114.438 88.3875 113.872C87.9563 113.434 87.5222 112.981 87.1292 112.499C86.9002 112.624 86.5857 112.601 86.4403 112.326C85.6837 110.9 83.6112 111.888 82.4645 112.226L80.8218 112.711C80.0005 112.953 79.1791 113.197 78.3599 113.444C76.1075 114.126 73.8659 114.888 71.5926 115.514C71.7963 115.736 71.7683 116.132 71.3817 116.283C69.6029 116.978 67.6507 117.338 65.8029 117.815C64.6353 118.116 63.4691 118.419 62.3037 118.724C62.1035 119.047 61.9596 119.412 61.8991 119.837C61.6767 121.398 62.1057 123.2 62.5239 124.711L62.5866 124.936C62.9299 126.15 63.436 127.638 64.4877 128.406C64.7447 128.592 65.0715 128.722 65.4012 128.752C67.4607 127.697 69.5202 126.641 71.5811 125.587C71.9626 125.392 72.3153 125.657 72.401 125.97C73.1273 125.852 73.8522 125.664 74.5123 125.441C75.6216 125.066 76.4883 124.351 77.5285 123.855C79.5405 122.899 81.5957 124.074 83.3974 124.968L83.8128 125.171C84.6205 125.562 86.3013 126.312 86.6893 125.244C87.0644 124.211 85.8788 123.108 85.1128 122.643C84.2001 122.088 83.1376 121.792 82.106 121.545C81.5172 121.403 80.9212 121.288 80.3215 121.204C79.6413 121.109 78.9387 121.123 78.2836 120.903C77.9583 120.794 77.9079 120.279 78.2836 120.194C79.2921 119.966 80.495 120.215 81.5474 120.47L82.0974 120.605C83.157 120.864 84.2274 121.189 85.1935 121.706C85.8953 122.082 86.6361 122.653 87.1205 123.352C87.5409 122.963 88.0642 122.976 88.6092 123.12L88.905 123.202C89.3938 123.336 89.7897 123.429 90.2648 123.336C90.3282 122.992 90.393 122.648 90.4613 122.303C91.1387 118.917 91.8816 115.543 92.7015 112.187C94.1153 106.399 95.7515 100.675 97.5958 95.0096L97.7808 94.4431C98.2062 93.1474 98.5489 91.735 99.2349 90.5444C99.8835 89.4193 100.922 88.7707 102.157 88.4273C103.558 88.0372 105.03 87.8334 106.46 87.5707C106.779 87.5117 107.099 87.4562 107.417 87.3987C107.148 86.9135 106.947 86.3628 106.765 85.9402L106.734 85.8675C106.344 84.9828 105.994 84.0823 105.656 83.1775L105.403 82.4965C104.793 80.8581 104.163 79.2463 103.306 77.7138C102.402 76.1006 101.204 74.7818 99.7114 73.6905C96.6665 71.4648 92.9967 70.3295 90.0438 67.9512C89.9229 67.854 90.0777 67.687 90.2008 67.7489C92.1947 68.7466 94.3471 69.4247 96.421 70.2374L96.8306 70.3979C98.4697 71.0451 100.134 71.7498 101.554 72.7972C103.135 73.9655 104.381 75.4167 105.318 77.1422C106.24 78.8432 106.831 80.7465 107.481 82.5634L107.656 83.0472C107.918 83.7735 108.19 84.4969 108.501 85.2031C108.747 85.7639 109.208 86.4045 109.417 87.0445C109.989 86.9459 110.562 86.8465 111.135 86.7515C123.551 84.687 136.106 83.474 148.688 83.1191C149.18 83.1055 149.434 83.5734 149.362 84.001C148.155 91.1109 147.081 98.2461 145.904 105.362C145.39 108.468 144.866 111.571 144.33 114.673C144.058 116.245 143.744 117.809 143.486 119.384C143.278 120.654 143.128 121.936 142.771 123.177C142.451 124.29 141.96 125.364 141.153 126.213C140.284 127.129 139.071 127.571 137.85 127.781C134.749 128.312 131.569 128.529 128.444 128.884L111.803 130.769C112.047 132.97 112.065 135.137 111.953 137.364L111.89 138.579C111.837 139.557 111.775 140.536 111.634 141.504C111.457 142.718 110.9 143.746 110.079 144.652C109.324 145.485 108.408 146.195 107.517 146.876C106.592 147.583 105.636 148.266 104.548 148.703L104.407 148.758C103.453 149.129 101.663 149.704 100.359 149.494C100.529 150.345 100.859 151.259 100.567 152.101C100.431 152.492 99.9173 152.687 99.6035 152.354C98.9801 151.695 98.9318 150.825 98.7843 149.964C98.6302 149.07 98.4985 148.171 98.3804 147.272C98.1529 145.531 97.9759 143.774 97.9219 142.019C97.8665 140.216 97.8881 138.412 97.986 136.611C98.0356 135.686 98.0982 134.762 98.2156 133.843C98.266 133.451 98.3178 133.059 98.3761 132.668C98.3977 132.525 98.4215 132.384 98.4467 132.242L96.9537 132.41C94.6631 132.664 92.3718 132.895 90.0654 132.93C89.7926 132.934 89.5824 132.81 89.4449 132.63C89.2988 132.867 89.044 133.037 88.679 133.036C85.4584 133.024 82.4588 131.975 79.5297 130.739C78.0526 130.116 76.5992 129.441 75.1206 128.823C73.7399 128.247 72.2642 127.835 70.9174 127.186L67.3779 129.034C67.352 129.125 67.3189 129.211 67.2829 129.283C67.0525 129.752 66.5983 130.006 66.134 130.197C65.6891 130.381 65.2277 130.439 64.7778 130.392C62.0935 131.793 59.4084 133.192 56.7219 134.588L54.0347 135.984C48.6798 138.76 43.3471 141.582 37.959 144.293L37.5624 144.491C35.7008 145.421 33.7025 146.363 31.6373 147.066C31.6006 147.587 31.6236 148.093 31.6675 148.644L31.6783 148.764C31.7395 149.415 31.872 150.231 31.3472 150.694C31.0744 150.936 30.587 150.936 30.4013 150.573C30.0644 149.914 30.3668 148.875 30.474 148.158C30.5114 147.904 30.5575 147.642 30.6259 147.388C28.2583 148.09 25.8188 148.43 23.4094 148.037C21.0635 147.653 19.2466 146.181 17.7819 144.381C16.2361 142.482 15.1376 140.267 14.5482 137.894C13.8775 135.194 13.8337 132.405 13.8494 129.639C13.8662 126.693 13.9756 123.733 14.3353 120.808C13.9412 120.716 13.504 120.636 13.1057 120.663C12.9084 120.978 12.5257 121.11 12.1799 121.069C11.428 121.895 13.3354 122.739 13.9449 122.95C14.1566 123.023 14.1339 123.366 13.8898 123.356L13.736 123.348C12.7942 123.298 11.8211 123.139 11.2673 122.267C10.8235 121.568 10.9569 120.74 11.4859 120.171C11.8353 116.881 12.6706 113.677 13.448 110.468C14.2109 107.318 15.0593 104.188 15.9585 101.074L16.3617 99.68C17.7775 94.7973 19.2574 89.8757 21.2105 85.1866C22.1857 82.8456 23.3092 80.5478 24.8321 78.5063C26.2517 76.6038 27.9279 74.9755 29.8542 73.5847C33.4456 70.9918 37.6596 69.4247 41.8001 67.9324L41.9851 67.8655C44.131 67.0924 46.2719 66.3106 48.3925 65.4727C50.2685 64.732 52.0659 63.7933 53.9332 63.0418C53.8728 62.9316 53.8137 62.8208 53.7576 62.7085L53.723 62.738C53.7173 62.7423 53.7108 62.7466 53.705 62.751C53.5172 62.8805 53.2407 62.8172 53.086 62.6718C52.649 62.2615 52.7966 61.8051 53.0888 61.3796L53.1263 61.3257C53.4833 60.8275 53.8015 60.302 54.1305 59.7859L54.3371 59.4634C54.8892 58.6017 55.4701 57.735 56.2072 57.0231C56.5484 56.6927 56.9221 56.4458 57.3173 56.2622C57.2834 56.191 57.5807 56.0448 57.6649 56.1183C58.9189 55.6611 60.3615 55.7569 61.7285 55.8829M110.998 130.86L109.254 131.057C107.337 131.274 105.418 131.484 103.499 131.693L99.3299 132.144C99.3191 132.381 99.2903 132.612 99.2853 132.791C99.2579 133.712 99.2378 134.634 99.2183 135.555C99.1802 137.403 99.2219 139.252 99.3443 141.096C99.4631 142.883 99.6186 144.67 99.8612 146.444L99.9108 146.799L99.9389 146.986C100.137 147.004 100.331 147.098 100.492 147.29C100.845 147.71 102.122 147.302 102.62 147.125C103.44 146.835 104.213 146.344 104.925 145.852C105.621 145.371 106.248 144.81 106.849 144.22L107.342 143.735C107.832 143.25 108.323 142.734 108.623 142.124C109.03 141.297 109.082 140.281 109.202 139.38C109.349 138.272 109.524 137.164 109.709 136.061M60.3845 119.228L60.2031 119.275C53.6338 121.014 47.0745 122.804 40.485 124.465C37.2241 125.287 33.9473 126.05 30.682 126.857L30.1537 126.988C27.5781 127.637 24.9711 128.417 22.9986 130.277C22.9259 130.346 22.8201 130.241 22.8887 130.168C25.0144 127.915 28.038 126.96 30.9405 126.133C31.4775 125.98 32.0145 125.831 32.5515 125.68C28.6038 124.277 24.5933 123.059 20.4905 122.188C19.4339 121.964 18.3652 121.8 17.3095 121.576C16.5733 121.419 15.8543 121.192 15.1259 121.003L14.5529 120.86L14.5453 122.663C14.5358 125.217 14.5403 127.77 14.6712 130.324L14.696 130.797C14.8486 133.639 15.0869 136.54 16.0997 139.22C16.9227 141.398 18.2345 143.449 19.9499 145.036C20.818 145.838 21.7512 146.462 22.9049 146.771C23.976 147.058 25.0982 147.091 26.1993 147.015C31.4811 146.647 36.1824 143.79 40.77 141.425C48.2745 137.556 55.7796 133.688 63.2913 129.834C63.0883 129.696 62.8968 129.537 62.7226 129.357C61.7155 128.321 61.1843 126.903 60.8352 125.53C60.4637 124.068 60.242 122.501 60.2161 120.991M69.942 131.328C70.0082 131.292 70.0852 131.336 70.0881 131.411C70.1119 131.983 69.7944 132.546 69.5576 133.06L69.5324 133.116C69.2452 133.753 68.9299 134.382 68.6038 135.001C67.9523 136.238 67.2757 137.462 66.5688 138.669C65.1478 141.096 63.5692 143.42 61.7033 145.534C61.2815 146.011 60.5883 145.399 60.8589 144.885C62.1633 142.408 63.6836 140.068 65.2486 137.749C66.0318 136.588 66.815 135.425 67.6061 134.269C67.9358 133.787 68.2705 133.306 68.6139 132.833L68.8212 132.55M147.856 84.5387C141.263 84.7366 134.679 85.165 128.117 85.8359C122.016 86.46 115.937 87.2907 109.892 88.3258C108.629 88.5418 107.368 88.7671 106.108 89.001L105.353 89.1428C104.093 89.3804 102.554 89.4783 101.433 90.1485C100.25 90.8554 99.9303 92.3318 99.5372 93.5491C99.0744 94.9816 98.6237 96.4177 98.1853 97.8574C96.4433 103.573 94.8524 109.338 93.4329 115.141C92.7281 118.022 92.1026 120.919 91.4439 123.809C90.8587 126.378 90.213 128.917 89.5385 131.461C89.622 131.397 89.7235 131.348 89.8466 131.321C93.1968 130.611 96.6168 130.303 100.017 129.911L100.346 129.873C103.863 129.461 107.38 129.052 110.899 128.658L134.201 126.048C135.575 125.894 137.047 125.873 138.385 125.506C140.658 124.882 141.191 122.35 141.572 120.334L141.584 120.273C142.734 114.182 143.65 108.037 144.722 101.931M90.0805 124.38C89.1764 124.321 87.9383 123.496 87.2515 123.555C87.6122 124.156 87.7749 124.843 87.5668 125.577C86.9888 127.617 84.3757 126.561 83.1167 125.938C82.0844 125.427 81.0882 124.801 79.945 124.562C78.6507 124.29 77.774 124.803 76.6798 125.394C75.7821 125.879 74.8039 126.227 73.7975 126.408C73.2627 126.504 72.7544 126.514 72.247 126.476C72.2167 126.502 72.1822 126.525 72.1433 126.545L71.8748 126.685C73.0877 126.741 74.3237 127.114 75.4525 127.455C76.6222 127.808 77.7711 128.234 78.9135 128.671L80.0372 129.1C82.8093 130.158 85.6787 131.162 88.679 131.153C88.895 131.153 89.0713 131.212 89.2102 131.309M85.0193 117.986C85.9133 117.877 86.7383 117.994 87.4524 118.573C88.3133 119.271 88.8921 120.43 90.1302 120.507C90.4916 120.528 90.5751 121.034 90.2166 121.14C89.2945 121.412 88.5487 120.915 87.9203 120.27L87.4984 119.831C86.8779 119.191 86.3056 118.696 85.2525 118.734C84.1252 118.776 82.9958 119.035 81.875 119.167C80.6059 119.317 79.3375 119.444 78.0641 119.554C78.0051 119.559 77.995 119.467 78.0504 119.453L79.4764 119.099M84.1569 114.347L84.3045 114.333C85.6016 114.207 86.7887 114.202 87.9476 114.898L88.1701 115.032C89.2153 115.664 90.3527 116.409 91.0063 117.433C91.1128 117.601 90.9364 117.798 90.7572 117.755C89.5018 117.455 88.5833 116.537 87.5272 115.851C86.3416 115.08 85.1172 115.207 83.766 115.327C82.4573 115.443 81.1494 115.602 79.8536 115.819C78.6356 116.024 77.414 116.345 76.1845 116.448V116.445C76.0442 116.445 75.9643 116.235 76.1075 116.164C77.3557 115.543 78.8012 115.249 80.1588 114.965M39.7176 79.2039C39.7155 79.1017 39.8601 79.0635 39.9105 79.152C40.7549 80.6313 41.1962 82.4446 41.6461 84.0744C42.1176 85.7819 42.4977 87.5066 42.8396 89.2444C43.5314 92.7623 43.8999 96.26 43.9251 99.8463C43.9287 100.358 43.0908 100.494 43.0088 99.9694C42.4653 96.4817 41.9441 92.9905 41.3963 89.5035C41.1199 87.7492 40.7996 86.0021 40.4922 84.2536M48.0765 81.7809C48.0146 81.5765 48.3126 81.5081 48.3889 81.6946C50.0835 85.8373 50.6579 90.5322 49.5695 94.9024C49.4032 95.5711 48.4199 95.281 48.5451 94.6209M69.9355 78.0996C69.9269 77.947 70.1263 77.9233 70.2011 78.0284C71.0038 79.1549 71.3371 80.6637 72.7458 81.2461C73.4491 81.5369 74.2409 81.4858 74.8622 81.9767C75.2775 82.3057 75.5964 82.824 75.284 83.3214C75.184 83.4819 74.9025 83.5626 74.7657 83.3876C74.5663 83.1335 74.4612 82.829 74.1906 82.6383C73.809 82.3691 73.2936 82.3525 72.856 82.2258C72.2901 82.0624 71.7913 81.7766 71.3824 81.3512M83.3499 59.3079C83.4327 59.2662 83.5126 59.2928 83.5652 59.3641C83.6408 59.4656 83.6314 59.5642 83.5393 59.634C83.6624 59.886 83.8085 60.5158 83.8294 60.608C83.9143 60.9801 84.0043 61.3494 84.0979 61.7194C84.2879 62.4645 84.4542 63.2153 84.6442 63.961C84.8458 64.7514 85.0855 65.5332 85.3526 66.3041C85.3698 66.3538 85.3886 66.4049 85.4087 66.4567L85.4389 66.5345L85.4469 66.523C85.5009 66.4373 85.6139 66.4971 85.6009 66.587C85.588 66.6698 85.5714 66.7512 85.557 66.834L85.5851 66.9074C85.76 67.3753 85.8795 67.8684 85.5592 68.2816C85.4389 68.4363 85.3072 68.5278 85.1431 68.5551C84.8789 69.4204 84.5485 70.2698 84.1943 71.0854L84.0907 71.3237C83.5695 72.5136 83.0145 73.6884 82.1852 74.7012C81.2796 75.8076 80.0343 76.5627 79.2453 77.775C78.8782 78.3386 78.6227 78.9318 78.4161 79.5681L78.3376 79.81C78.1908 80.2606 78.0209 80.6968 77.5969 80.961C77.4616 81.0452 77.2586 81.0186 77.1491 80.9034C76.2796 79.9871 77.1902 78.276 77.7149 77.3884C78.4442 76.1546 79.4995 75.3656 80.5562 74.4349C81.695 73.4314 82.4221 72.0889 83.1246 70.7665C83.5551 69.9567 83.9705 69.1288 84.4081 68.3154C83.951 67.913 83.8049 67.114 83.6501 66.5583L83.6357 66.5086C83.3795 65.6188 83.1765 64.7061 83.0476 63.789C82.9245 62.9079 82.8727 62.039 82.9051 61.1529L82.9144 60.9269M85.0495 63.5032C84.9487 63.365 85.1157 63.2088 85.2547 63.2376C86.0969 63.4111 86.9204 63.9193 87.677 64.3296L87.7576 64.3735C88.3615 64.6974 88.9684 65.0948 89.2858 65.7247C89.6299 66.4085 89.6018 67.1975 89.5551 67.9411L89.55 68.0102C89.4924 68.9028 89.4838 69.8293 89.2937 70.7053C89.1966 71.1531 88.7891 71.2798 88.4407 71.1739C88.0261 72.4776 86.8606 73.4386 86.0098 74.468C84.925 75.7795 85.1287 77.5511 85.2424 79.1312C85.2885 79.7711 84.4895 79.9532 84.0777 79.612L83.1289 78.8274C82.9713 78.6964 82.8137 78.5654 82.656 78.4336C82.5214 78.3206 82.3875 78.2069 82.255 78.0917L82.0578 77.9175C81.97 77.839 81.5827 77.4086 81.4697 77.3913C81.1954 77.3474 80.5447 78.0672 80.3215 78.2925L80.2934 78.3206C79.8738 78.7302 79.4951 79.1708 79.1424 79.6387C79.0769 79.7243 78.9502 79.6531 78.9963 79.5537C79.313 78.8792 79.6809 78.2342 80.1171 77.6303L80.2056 77.5101C80.4964 77.1199 80.8859 76.4317 81.3991 76.3166C82.0254 76.1762 82.6502 76.801 83.1059 77.148L83.1347 77.1703C83.3514 77.3323 83.5659 77.4971 83.7797 77.6627C83.7574 76.4864 83.9064 75.2972 84.5168 74.2837C84.9466 73.5689 85.5908 73.0391 86.1422 72.4243C86.7563 71.7405 87.0766 70.8997 87.6323 70.187C87.7043 70.0956 87.8029 70.0459 87.9095 70.0301C87.9311 69.4571 88.0153 68.879 88.0808 68.3125L88.1002 68.1426C88.1665 67.5272 88.3227 66.7749 88.0196 66.1983C87.7338 65.6534 87.078 65.269 86.5921 64.8997L86.1955 64.5931M57.7067 56.9929C57.4533 57.139 57.2158 57.3211 57.0012 57.5479C56.3239 58.2634 55.8394 59.1531 55.3686 60.0098C55.1152 60.4712 54.8705 60.9369 54.6149 61.3969C54.5034 61.5978 54.3889 61.7957 54.2737 61.993C54.2197 62.0844 54.0614 62.2651 53.9822 62.3766C54.07 62.499 54.1607 62.6192 54.2528 62.738C54.2881 62.7833 56.7169 65.4187 57.5634 66.4496C58.8599 68.0289 60.0189 69.6975 61.0094 71.4835C61.9797 73.2327 62.7183 75.0842 63.6167 76.8665C64.0666 77.7591 64.569 78.6453 65.209 79.4177C65.2342 79.4479 65.2601 79.4767 65.2853 79.5062C65.53 78.8483 66.1563 78.1442 66.4637 77.7404L66.4925 77.7023C67.19 76.7657 67.9264 75.8573 68.6794 74.9647C69.3668 74.1498 70.0716 73.3522 70.7936 72.5676L71.065 72.2739C71.5681 71.7325 72.2074 70.9234 72.9438 70.5369C72.8646 70.3965 72.7732 70.2583 72.6681 70.1215C71.9785 69.2231 71.0031 68.5717 70.0406 67.9836L69.4165 67.6056C67.064 66.1782 64.7483 64.6845 62.7061 62.8294C61.6256 61.8475 60.5602 60.8196 59.6517 59.675L59.3307 59.2698M61.632 56.286C60.5307 56.3781 59.3408 56.3565 58.3229 56.7136C59.2277 57.5659 60.088 58.4858 60.9719 59.3525C61.0504 58.7666 61.2109 58.1871 61.3477 57.6163" fill="black"/>
<path fill-rule="evenodd" clip-rule="evenodd" d="M93.7979 20.5187C93.9483 19.1256 92.3143 15.4092 92.3538 16.1631C89.7343 12.132 84.6219 10.5468 80.2107 9.21606C70.8469 6.13114 63.5346 9.8568 56.9559 16.4599C53.0716 20.0806 49.3759 24.1252 47.4258 29.1375C43.5897 38.6994 49.3399 49.6026 58.0832 54.17C58.7886 54.5516 59.5582 54.9129 60.2298 55.3736C63.8441 57.4576 68.0884 58.1782 72.1167 59.0852C79.6514 60.8042 89.1152 59.985 93.5553 52.8261C96.5671 47.7446 95.7674 41.5856 95.5313 35.9466C95.1771 31.0061 94.5559 25.4229 93.7979 20.5187Z" fill="#EDB98A"/>
<path fill-rule="evenodd" clip-rule="evenodd" d="M53.5214 6.41885C58.4034 1.86457 65.6185 -0.342854 72.2159 0.0432024C75.7886 0.252391 79.2323 1.1458 82.4616 2.68088C83.4715 3.16088 84.4556 3.72279 85.3626 4.38441C85.9744 4.66947 86.5734 4.978 87.1528 5.31338C90.0567 6.99192 92.3005 9.53437 93.7373 12.5502C94.4233 13.9896 94.9639 15.5075 95.2706 17.0715L95.3203 17.3289C95.4765 18.1138 95.7853 19.1478 95.3944 19.8822C95.1353 20.3691 94.5918 20.676 94.0778 20.6348C94.1894 21.086 94.3233 21.5372 94.4089 21.9913L94.6414 23.2296C94.6803 23.436 94.7185 23.6424 94.7559 23.8487C94.9812 25.0787 95.1878 26.3072 95.3534 27.5468C95.6989 30.1281 96.012 32.7146 96.2878 35.3053C96.4857 37.1581 96.6707 39.0126 96.8507 40.8669L96.9579 41.9798C97.1429 43.8946 97.2876 45.8267 97.1617 47.7501C96.9731 50.6353 96.0833 53.2678 94.3578 55.4093C94.522 55.8038 94.5774 56.2479 94.7012 56.7389C94.8725 57.4177 95.0957 58.0828 95.3332 58.7422C95.4448 59.0014 95.5557 59.2605 95.6658 59.5204L95.9559 60.2078L96.1819 60.6592C96.4267 61.1501 96.6635 61.6483 96.814 62.1558C97.7894 62.6755 98.5855 63.5235 98.6244 64.6853C98.6589 65.7349 98.1133 66.8463 97.1912 67.3819C96.2806 67.9102 95.344 67.7022 94.4723 67.2984C93.7128 67.5194 92.8994 67.5467 92.1472 67.3113C91.5677 67.8347 90.8198 68.196 89.9919 68.2939C88.743 68.4415 87.5567 68.0931 86.4114 67.6338L86.3315 67.6021C86.2955 67.5878 86.2595 67.5726 86.225 67.5575C84.9069 67.4942 83.5946 66.9744 82.6595 66.0523C82.355 65.7543 82.0923 65.4131 81.8799 65.0301C81.109 63.6394 80.9888 61.9319 81.7475 60.5519C81.5848 60.5591 81.4207 60.5656 81.258 60.5699C79.0884 60.6318 76.9158 60.521 74.752 60.3792L74.2416 60.3446C72.8415 60.2438 70.777 60.007 70.7374 58.275C70.7316 58.0533 70.9605 57.887 71.1707 57.9461C71.9661 58.1699 72.7479 58.5227 73.5721 58.6494C74.6497 58.8157 75.767 58.8336 76.8561 58.8941L77.1692 58.9114C79.3655 59.0316 81.6409 59.1043 83.8012 58.6695C85.4144 58.3463 87.0953 57.7575 88.5731 57.0283C89.9919 56.3271 91.2805 55.4093 92.3199 54.2108C94.6098 51.5747 94.9136 47.8559 94.802 44.5209C94.6666 40.5372 94.198 36.5601 93.9331 32.5826L93.8136 30.7957C93.715 29.3055 93.6243 27.8133 93.5869 26.3224C93.5595 25.2342 93.5775 24.1432 93.5826 23.0548C93.5854 22.5114 93.5789 21.9652 93.5912 21.4217C93.5984 21.1163 93.6337 20.8177 93.6603 20.5191C93.5386 20.4559 93.4256 20.3677 93.3241 20.2509C93.2435 20.1587 93.1816 20.061 93.1391 19.962C92.6252 19.8119 92.3862 19.6124 92.0529 19.1599C91.7714 18.7788 91.4532 18.4265 91.1127 18.0963C90.3871 17.3946 89.5586 16.8209 88.6832 16.3213C86.8728 15.2882 84.8904 14.5976 82.8913 14.0307C79.8305 13.1639 76.6517 12.7182 73.5455 12.0219C72.6896 13.2133 71.7826 14.3692 70.8338 15.4878C67.8738 18.9769 64.4797 22.0875 60.843 24.8614C60.103 25.4268 59.3522 25.984 58.5913 26.5246C57.5893 28.0499 56.5765 29.5679 55.5478 31.0757L55.1065 31.7213L55.0993 31.7336C55.0388 31.8258 54.9805 31.918 54.923 32.0102C54.8006 32.2056 54.6624 32.394 54.5162 32.577C54.4212 32.7159 54.3248 32.8548 54.2269 32.9939C54.4147 33.0942 54.5853 33.2072 54.7192 33.3324C54.9921 33.5896 54.9467 33.9983 54.7192 34.2597C53.9857 35.1045 52.8246 34.0038 51.9809 33.7107C51.0667 33.9885 50.3044 35.0742 49.9257 35.9037C49.3794 37.0994 49.1605 38.5412 49.4075 39.8361C49.6328 41.0188 50.2425 42.0417 51.256 42.6824C51.292 42.7047 51.3302 42.7277 51.3676 42.7486C51.3691 42.7515 51.3691 42.7515 51.3705 42.75C51.405 42.7716 51.4403 42.7925 51.4763 42.8119C51.9521 43.0732 52.4747 43.2273 53.0161 43.2647C53.3263 43.2863 53.6503 43.2697 53.9605 43.3072C54.2794 43.3439 54.5414 43.49 54.8474 43.567C55.185 43.6541 55.4031 44.1069 55.1907 44.4107C55.0856 44.5604 54.9863 44.7037 54.8805 44.8318C55.2289 45.2414 55.5327 45.6942 55.8069 46.1247C56.182 46.715 56.5138 47.3412 56.8176 47.9797C57.0969 48.3469 57.3647 48.7212 57.6238 49.1034C59.0923 51.2745 60.216 53.6932 60.9064 56.2206C61.5902 58.7206 62.0178 61.5288 61.3851 64.0814C60.802 66.4281 59.0988 68.3724 56.5786 68.4977C56.0531 68.5236 55.5356 68.4645 55.0489 68.3314C53.9807 68.99 52.6569 69.3212 51.472 69.36C50.5132 69.3917 49.4636 69.1901 48.6804 68.6114C47.7518 69.0145 46.7447 69.2434 45.8687 69.296C44.8882 69.3543 43.8617 69.0879 43.0627 68.5596C42.3025 69.2096 41.4819 69.7581 40.5497 70.1346C38.9459 70.781 37.0383 70.7011 35.5698 69.7344C34.0984 68.7654 33.3505 67.027 33.7996 65.3015C34.2128 63.7106 35.5129 62.5445 36.7345 61.5396L36.9764 61.3423C38.1843 60.3583 39.4044 59.4059 40.1797 58.0188C41.0032 56.5481 41.3034 54.8392 41.3847 53.1749C41.5611 49.5094 40.8139 45.8771 40.5864 42.231C40.3525 38.4656 40.4835 34.6888 40.9974 30.9507C41.9973 23.6891 44.6277 16.5705 49.3866 10.9101C50.0748 10.0912 50.8119 9.31049 51.5886 8.57056C52.1825 7.79571 52.8239 7.06938 53.5214 6.41885ZM116.825 47.8804C116.852 47.8818 116.876 47.8833 116.9 47.8926C116.916 47.8998 116.929 47.9099 116.941 47.9214L117.057 48.0373C117.099 48.0784 117.096 48.1417 117.057 48.1835C117.023 48.2209 116.962 48.2216 116.922 48.1928L116.911 48.1835L116.791 48.0632C116.778 48.0488 116.766 48.0337 116.76 48.0143C116.755 47.9949 116.755 47.9725 116.754 47.9524C116.752 47.9149 116.788 47.8804 116.825 47.8804ZM52.1422 36.6399C53.2479 36.3054 54.5745 37.1008 55.2332 37.94C55.5643 38.3611 55.6579 38.9375 55.2332 39.3516C54.8718 39.7036 54.1664 39.7684 53.8173 39.3516C53.4221 38.877 53.0989 38.2192 52.5338 37.9153C51.9205 37.5851 51.0984 37.6677 50.9537 38.4724C50.9292 38.6087 50.7334 38.5632 50.7248 38.4408C50.6715 37.6264 51.3871 36.8667 52.1422 36.6399Z" fill="black"/>
<path fill-rule="evenodd" clip-rule="evenodd" d="M81.6784 50.483C80.7498 50.1058 79.9212 49.476 79.3151 48.6726C79.1049 48.3926 79.0502 48.0974 79.0941 47.8275C79.1438 47.5244 79.3245 47.2495 79.57 47.0645C79.8169 46.8795 80.1257 46.788 80.4237 46.8348C80.6829 46.8751 80.9413 47.0162 81.145 47.3099L81.1882 47.3682C81.5481 47.8534 82.0175 48.2515 82.5523 48.5085C83.0677 48.7554 83.6443 48.8713 84.2404 48.8036C85.377 48.6762 86.1602 48.0643 86.9923 47.2329C87.0953 47.1285 87.1989 47.0198 87.3026 46.9104C87.3681 46.8104 87.4588 46.7463 87.5596 46.7132C87.6719 46.6757 87.7986 46.6779 87.9145 46.7182C88.0268 46.7571 88.1268 46.8305 88.1938 46.9291C88.2578 47.022 88.2938 47.1372 88.2823 47.2703C88.206 48.1313 87.754 48.9001 87.1118 49.5033C86.3985 50.1735 85.4533 50.6371 84.5629 50.7998C83.5824 50.979 82.5833 50.8509 81.6784 50.483ZM85.0257 37.198C86.0688 37.8295 87.6589 39.3023 86.536 40.868C85.215 42.2479 83.3132 40.665 82.376 39.9495C81.5071 39.3944 80.5303 40.8212 81.3365 41.4691C88.1096 46.4627 90.8579 37.3631 85.5534 36.4554C84.9696 36.3554 84.7522 37.0026 85.0257 37.198ZM72.8883 31.3891C73.0042 29.9642 75.1832 29.6406 75.3999 31.0506C75.5935 32.3136 75.3653 33.4738 74.7938 34.611C74.2481 35.6974 72.8761 35.1905 72.7724 34.2013C72.6335 32.8753 72.817 32.2754 72.8883 31.3891ZM89.4758 30.7583C89.7796 30.362 90.2187 30.0915 90.7442 30.2444C92.3862 30.7222 91.9017 33.0436 91.3251 34.1736C91.012 34.7873 89.9992 34.9428 89.5413 34.4026C88.7956 33.5215 88.4385 31.7619 89.3866 30.894C89.4125 30.8492 89.4413 30.8039 89.4758 30.7583ZM74.7707 25.1543L75.0306 25.1091C75.8325 24.9709 76.8302 24.8381 77.3982 25.4805C77.6991 25.8212 77.8027 26.4543 77.3982 26.7804C76.6862 27.3542 75.8994 27.1318 75.0464 27.1804C74.3431 27.2205 73.6679 27.3364 72.9905 27.5291C71.5055 27.9519 70.2947 28.7238 69.0263 29.5713C68.86 29.6824 68.6894 29.4704 68.7693 29.3154C69.5014 27.8868 70.921 26.7134 72.3427 25.9981C73.1014 25.6163 73.9314 25.2996 74.7707 25.1543ZM87.9793 24.5144L88.1779 24.5549C90.3382 25.0046 93.1449 25.9029 94.1678 28.0161C94.2067 28.3149 94.1657 28.3789 94.1325 28.4208L94.121 28.4347C94.0937 28.4704 94.0714 28.5197 93.9418 28.5604C93.9051 28.5518 93.8691 28.5428 93.8324 28.5331C93.363 28.4107 92.9923 28.2422 92.6331 28.0672L92.2437 27.8761C91.7916 27.6555 91.3359 27.4429 90.8529 27.2859C89.8221 26.951 88.7617 26.7151 87.6849 26.5892C87.4509 26.562 87.2263 26.4835 87.0492 26.349C86.8808 26.2214 86.7519 26.0447 86.6936 25.8099C86.618 25.5059 86.6396 25.2759 86.803 25.0017C86.9261 24.7957 87.1025 24.6531 87.3048 24.5711C87.5114 24.4875 87.746 24.4678 87.9793 24.5144Z" fill="black"/>
<path d="M122.516 116.672C126.662 116.672 130.023 113.317 130.023 109.178C130.023 105.04 126.662 101.685 122.516 101.685C118.37 101.685 115.008 105.04 115.008 109.178C115.008 113.317 118.37 116.672 122.516 116.672Z" fill="black"/>
<path d="M124.147 112.281C124.253 112.175 124.412 112.251 124.512 112.091C124.543 112.037 124.558 111.974 124.553 111.912C124.553 111.751 124.553 111.596 124.553 111.438V109.771C124.553 109.429 124.58 109.076 124.553 108.734C124.552 108.695 124.542 108.657 124.525 108.623C124.507 108.588 124.482 108.557 124.453 108.533C124.372 108.461 123.362 108.767 123.28 108.731C123.198 108.696 123.184 108.577 123.214 108.504C123.243 108.43 123.308 108.423 123.368 108.397C123.486 108.349 124.543 108.032 124.661 107.983C124.863 107.903 125.071 107.771 125.29 107.771C125.394 107.771 125.451 107.802 125.435 107.911L125.379 108.282C125.965 107.401 127.364 107.532 127.901 108.394C128.447 109.27 128.174 110.664 127.175 111.074C126.591 111.315 125.896 111.215 125.445 110.759V111.623C125.445 111.733 125.437 111.847 125.445 111.956C125.448 112.014 125.468 112.068 125.502 112.115C125.536 112.161 125.583 112.196 125.637 112.216C125.705 112.24 125.802 112.202 125.843 112.274C125.884 112.348 125.881 112.577 125.811 112.622C125.76 112.656 125.65 112.635 125.59 112.635H124.54C124.453 112.635 124.285 112.669 124.203 112.635C124.098 112.59 124.147 112.368 124.147 112.281ZM125.458 108.934C125.352 109.406 125.378 109.993 125.637 110.416C125.699 110.511 125.779 110.591 125.873 110.655C125.967 110.718 126.072 110.762 126.183 110.784C126.295 110.805 126.408 110.805 126.519 110.782C126.63 110.759 126.735 110.714 126.828 110.65C127.241 110.353 127.296 109.717 127.265 109.255C127.233 108.791 127.072 108.242 126.57 108.112C126.447 108.078 126.316 108.073 126.19 108.096C126.063 108.119 125.943 108.17 125.839 108.245C125.624 108.408 125.515 108.677 125.458 108.934Z" fill="white"/>
<path d="M116.856 108.284C116.856 108.212 116.843 108.164 116.883 108.112C116.938 108.053 117 108 117.066 107.952L117.699 107.405C117.851 107.275 118.004 107.099 118.175 106.994C118.196 106.979 118.222 106.969 118.248 106.968C118.274 106.967 118.3 106.974 118.323 106.989C118.394 107.033 118.366 107.102 118.361 107.174L118.305 107.929H120.419C120.474 107.921 120.531 107.921 120.587 107.929C120.676 107.968 120.668 108.196 120.645 108.27C120.608 108.376 120.447 108.335 120.358 108.335H118.381C118.289 108.335 118.31 108.343 118.31 108.434V109.508C118.31 109.778 118.257 110.149 118.376 110.401C118.495 110.652 118.821 110.734 119.068 110.622C119.169 110.573 119.253 110.494 119.308 110.395C119.356 110.315 119.37 110.164 119.486 110.194C119.703 110.248 119.405 110.745 119.333 110.84C119.123 111.103 118.746 111.17 118.427 111.155C118.107 111.139 117.784 111.018 117.603 110.748C117.47 110.527 117.405 110.272 117.417 110.014C117.417 109.659 117.417 109.302 117.417 108.947C117.417 108.799 117.426 108.574 117.349 108.445C117.229 108.251 116.992 108.412 116.856 108.284Z" fill="white"/>
<path d="M119.877 109.394C119.873 109.138 119.918 108.884 120.008 108.644C120.082 108.439 120.2 108.252 120.353 108.097C120.506 107.941 120.691 107.82 120.895 107.742C121.099 107.662 121.317 107.621 121.537 107.623C121.735 107.616 121.933 107.65 122.118 107.721C122.303 107.793 122.47 107.902 122.612 108.04V107.147C122.609 107.076 122.578 107.009 122.529 106.96C122.478 106.909 122.411 106.879 122.34 106.875H122.27L122.204 106.808V106.602L123.306 106.181H123.508L123.575 106.25L123.508 106.873V110.39C123.513 110.461 123.544 110.527 123.594 110.577C123.644 110.627 123.711 110.657 123.781 110.662H123.862L123.918 110.718V111.016L123.862 111.069H122.665L122.612 111.016V110.718C122.344 111.016 121.983 111.165 121.528 111.165C121.306 111.171 121.086 111.13 120.882 111.044C120.678 110.958 120.494 110.829 120.344 110.667C120.032 110.335 119.877 109.911 119.877 109.394ZM120.824 108.884C120.756 109.221 120.756 109.568 120.824 109.904C120.857 110.054 120.911 110.2 120.985 110.336C121.053 110.463 121.154 110.57 121.278 110.645C121.41 110.719 121.559 110.758 121.71 110.758C121.861 110.758 122.01 110.719 122.143 110.645C122.265 110.57 122.366 110.465 122.436 110.341C122.51 110.205 122.564 110.058 122.596 109.907C122.668 109.571 122.668 109.223 122.596 108.887C122.564 108.736 122.51 108.59 122.436 108.454C122.366 108.327 122.264 108.221 122.14 108.146C122.008 108.072 121.859 108.033 121.708 108.033C121.556 108.033 121.407 108.072 121.275 108.146C121.152 108.221 121.05 108.328 120.982 108.455C120.91 108.59 120.857 108.735 120.824 108.884Z" fill="white"/>
<rect y="59" width="159" height="96" fill="url(#paint0_linear_230_63)"/>
<defs>
<linearGradient id="paint0_linear_230_63" x1="79.5" y1="59" x2="79.5" y2="155" gradientUnits="userSpaceOnUse">
<stop offset="0.323425" stop-color="#F6F6F6" stop-opacity="0"/>
<stop offset="1" stop-color="#F6F6F6"/>
</linearGradient>
</defs>
</svg>
